<mxfile host="app.diagrams.net" modified="2022-12-16T15:58:42.721Z" agent="5.0 (Windows NT 10.0; Win64; x64) AppleWebKit/537.36 (KHTML, like Gecko) Chrome/108.0.0.0 Safari/537.36" etag="fipka8K_g4tOPiOhSPmw" version="20.7.4" type="github" pages="3">
  <diagram id="fVxne-2lv_1XjA1gNhXj" name="Page-1">
    <mxGraphModel dx="1992" dy="916" grid="1" gridSize="10" guides="1" tooltips="1" connect="1" arrows="1" fold="1" page="1" pageScale="1" pageWidth="850" pageHeight="1100" math="0" shadow="0">
      <root>
        <mxCell id="0" />
        <mxCell id="1" parent="0" />
        <UserObject label="&amp;nbsp; &amp;nbsp;login" lucidchartObjectId="-c0e5opQFQhh" id="O1rDpLoGwMOp85sgSPhA-86">
          <mxCell style="html=1;blockSpacing=1;whiteSpace=wrap;shape=mxgraph.sysml.package2;xSize=90;overflow=fill;fontSize=13;fontColor=#3a414a;align=left;spacing=0;strokeColor=#3a414a;strokeOpacity=100;fillOpacity=100;rounded=1;absoluteArcSize=1;arcSize=12;fillColor=#ffffff;strokeWidth=1.5;" parent="1" vertex="1">
            <mxGeometry x="198" y="352" width="1482" height="168" as="geometry" />
          </mxCell>
        </UserObject>
        <UserObject label="" lucidchartObjectId="Yu5M4GIAFP0a" id="O1rDpLoGwMOp85sgSPhA-87">
          <mxCell style="html=1;jettySize=18;whiteSpace=wrap;fontSize=13;fontFamily=helvetica;strokeColor=#333333;strokeOpacity=100;dashed=1;fixDash=1;dashPattern=16 6;strokeWidth=0.8;rounded=0;startArrow=none;endArrow=none;exitX=0.5;exitY=1;exitPerimeter=0;" parent="1" source="O1rDpLoGwMOp85sgSPhA-91" edge="1">
            <mxGeometry width="100" height="100" relative="1" as="geometry">
              <Array as="points" />
              <mxPoint x="524" y="865" as="targetPoint" />
            </mxGeometry>
          </mxCell>
        </UserObject>
        <UserObject label="" lucidchartObjectId="Yu5MhR-oMSno" id="O1rDpLoGwMOp85sgSPhA-88">
          <mxCell style="html=1;overflow=block;blockSpacing=1;whiteSpace=wrap;fontSize=13;spacing=0;strokeColor=#f2f2f2;strokeOpacity=100;fillOpacity=100;rounded=1;absoluteArcSize=1;arcSize=12;fillColor=#ced4db;strokeWidth=0.8;" parent="1" vertex="1">
            <mxGeometry x="510" y="307" width="30" height="993" as="geometry" />
          </mxCell>
        </UserObject>
        <UserObject label="" lucidchartObjectId="Yu5MXQ6BOCr2" id="O1rDpLoGwMOp85sgSPhA-89">
          <mxCell style="html=1;jettySize=18;whiteSpace=wrap;fontSize=13;fontFamily=helvetica;strokeColor=#333333;strokeOpacity=100;dashed=1;fixDash=1;dashPattern=16 6;strokeWidth=0.8;rounded=1;arcSize=24;edgeStyle=orthogonalEdgeStyle;startArrow=none;endArrow=none;exitX=0.5;exitY=1;exitPerimeter=0;" parent="1" source="O1rDpLoGwMOp85sgSPhA-92" edge="1">
            <mxGeometry width="100" height="100" relative="1" as="geometry">
              <Array as="points" />
              <mxPoint x="795" y="872" as="targetPoint" />
            </mxGeometry>
          </mxCell>
        </UserObject>
        <UserObject label="" lucidchartObjectId="Yu5MsRc69goB" id="O1rDpLoGwMOp85sgSPhA-90">
          <mxCell style="html=1;overflow=block;blockSpacing=1;whiteSpace=wrap;fontSize=13;spacing=0;strokeColor=#f2f2f2;strokeOpacity=100;fillOpacity=100;rounded=1;absoluteArcSize=1;arcSize=12;fillColor=#ced4db;strokeWidth=0.8;" parent="1" vertex="1">
            <mxGeometry x="780" y="352" width="30" height="487" as="geometry" />
          </mxCell>
        </UserObject>
        <mxCell id="O1rDpLoGwMOp85sgSPhA-91" value="ui" style="html=1;overflow=block;blockSpacing=1;whiteSpace=wrap;fontSize=13.3;fontColor=#333333;fontStyle=6;align=center;spacing=0;strokeOpacity=0;fillOpacity=100;rounded=1;absoluteArcSize=1;arcSize=12;fillColor=#ffaf28;strokeWidth=0.8;" parent="1" vertex="1">
          <mxGeometry x="453" y="165" width="143" height="90" as="geometry" />
        </mxCell>
        <mxCell id="O1rDpLoGwMOp85sgSPhA-92" value="backend" style="html=1;overflow=block;blockSpacing=1;whiteSpace=wrap;fontSize=13.3;fontColor=#333333;fontStyle=6;align=center;spacing=0;strokeOpacity=0;fillOpacity=100;rounded=1;absoluteArcSize=1;arcSize=12;fillColor=#ffcc78;strokeWidth=0.8;" parent="1" vertex="1">
          <mxGeometry x="723" y="165" width="143" height="90" as="geometry" />
        </mxCell>
        <mxCell id="O1rDpLoGwMOp85sgSPhA-93" value="data base" style="html=1;overflow=block;blockSpacing=1;whiteSpace=wrap;fontSize=13.3;fontColor=#333333;fontStyle=6;align=center;spacing=0;strokeOpacity=0;fillOpacity=100;rounded=1;absoluteArcSize=1;arcSize=12;fillColor=#ffe6be;strokeWidth=0.8;" parent="1" vertex="1">
          <mxGeometry x="994" y="165" width="143" height="90" as="geometry" />
        </mxCell>
        <UserObject label="pationt" lucidchartObjectId="Yu5MdgyV5tNR" id="O1rDpLoGwMOp85sgSPhA-94">
          <mxCell style="html=1;overflow=block;blockSpacing=1;shape=umlActor;labelPosition=center;verticalLabelPosition=bottom;verticalAlign=top;whiteSpace=nowrap;fontSize=13.3;fontColor=#333333;fontStyle=2;align=center;spacing=0;strokeColor=#333333;strokeOpacity=100;fillOpacity=100;rounded=1;absoluteArcSize=1;arcSize=12;fillColor=#ffffff;strokeWidth=0.8;" parent="1" vertex="1">
            <mxGeometry x="258" y="193" width="60" height="135" as="geometry" />
          </mxCell>
        </UserObject>
        <UserObject label="" lucidchartObjectId="C8Ze6TrC35Hq" id="O1rDpLoGwMOp85sgSPhA-99">
          <mxCell style="html=1;jettySize=18;whiteSpace=wrap;fontSize=13;strokeColor=#3a414a;strokeOpacity=100;strokeWidth=0.8;rounded=1;arcSize=24;edgeStyle=orthogonalEdgeStyle;startArrow=none;endArrow=none;" parent="1" edge="1">
            <mxGeometry width="100" height="100" relative="1" as="geometry">
              <Array as="points">
                <mxPoint x="288" y="905" />
              </Array>
              <mxPoint x="290" y="1300" as="sourcePoint" />
              <mxPoint x="288" y="135" as="targetPoint" />
            </mxGeometry>
          </mxCell>
        </UserObject>
        <mxCell id="O1rDpLoGwMOp85sgSPhA-100" value="" style="html=1;overflow=block;blockSpacing=1;swimlane;childLayout=stackLayout;horizontal=1;horizontalStack=0;resizeParent=1;resizeParentMax=0;resizeLast=0;collapsible=0;fontStyle=0;marginBottom=0;swimlaneFillColor=#ffcc78;startSize=25;whiteSpace=wrap;fontSize=13;align=center;spacing=0;strokeOpacity=0;fillOpacity=100;rounded=1;absoluteArcSize=1;arcSize=12;fillColor=#ffcc78;strokeWidth=0.8;" parent="1" vertex="1">
          <mxGeometry x="1265" y="165" width="150" height="75" as="geometry" />
        </mxCell>
        <mxCell id="O1rDpLoGwMOp85sgSPhA-101" value="machine" style="part=1;html=1;resizeHeight=0;strokeColor=none;fillColor=none;verticalAlign=middle;spacingLeft=4;spacingRight=4;overflow=hidden;rotatable=0;points=[[0,0.5],[1,0.5]];portConstraint=eastwest;swimlaneFillColor=#ffcc78;strokeOpacity=0;fillOpacity=100;whiteSpace=wrap;fontSize=13;fontColor=#3a414a;align=center;" parent="O1rDpLoGwMOp85sgSPhA-100" vertex="1">
          <mxGeometry y="25" width="150" height="30" as="geometry" />
        </mxCell>
        <mxCell id="O1rDpLoGwMOp85sgSPhA-102" value="" style="line;strokeWidth=1;fillColor=none;align=left;verticalAlign=middle;spacingTop=-1;spacingLeft=3;spacingRight=3;rotatable=0;labelPosition=right;points=[];portConstraint=eastwest;" parent="O1rDpLoGwMOp85sgSPhA-100" vertex="1">
          <mxGeometry y="55" width="150" height="8" as="geometry" />
        </mxCell>
        <mxCell id="O1rDpLoGwMOp85sgSPhA-103" value="" style="part=1;html=1;resizeHeight=0;strokeColor=none;fillColor=none;verticalAlign=middle;spacingLeft=4;spacingRight=4;overflow=hidden;rotatable=0;points=[[0,0.5],[1,0.5]];portConstraint=eastwest;swimlaneFillColor=#ffcc78;strokeOpacity=0;fillOpacity=100;whiteSpace=wrap;fontSize=13;align=center;" parent="O1rDpLoGwMOp85sgSPhA-100" vertex="1">
          <mxGeometry y="63" width="150" height="12" as="geometry" />
        </mxCell>
        <UserObject label="" lucidchartObjectId="ab0eYKfd1-.C" id="O1rDpLoGwMOp85sgSPhA-104">
          <mxCell style="html=1;jettySize=18;whiteSpace=wrap;fontSize=13;strokeColor=#3a414a;strokeOpacity=100;strokeWidth=1.5;rounded=1;arcSize=24;edgeStyle=orthogonalEdgeStyle;startArrow=none;endArrow=block;endFill=1;exitX=-0.012;exitY=0.023;exitPerimeter=0;" parent="1" source="O1rDpLoGwMOp85sgSPhA-88" edge="1">
            <mxGeometry width="100" height="100" relative="1" as="geometry">
              <Array as="points" />
              <mxPoint x="290" y="337" as="targetPoint" />
            </mxGeometry>
          </mxCell>
        </UserObject>
        <mxCell id="O1rDpLoGwMOp85sgSPhA-105" value="login or register" style="text;html=1;resizable=0;labelBackgroundColor=default;align=center;verticalAlign=middle;fontColor=#3a414a;fontSize=13;" parent="O1rDpLoGwMOp85sgSPhA-104" vertex="1">
          <mxGeometry relative="1" as="geometry">
            <mxPoint as="offset" />
          </mxGeometry>
        </mxCell>
        <UserObject label="" lucidchartObjectId="Qn0eZZNuibql" id="O1rDpLoGwMOp85sgSPhA-106">
          <mxCell style="html=1;jettySize=18;whiteSpace=wrap;fontSize=13;strokeColor=#3a414a;strokeOpacity=100;strokeWidth=1.5;rounded=1;arcSize=24;edgeStyle=orthogonalEdgeStyle;startArrow=none;endArrow=block;endFill=1;" parent="1" edge="1">
            <mxGeometry width="100" height="100" relative="1" as="geometry">
              <Array as="points">
                <mxPoint x="508" y="360" />
              </Array>
              <mxPoint x="290" y="360" as="sourcePoint" />
              <mxPoint x="508" y="360" as="targetPoint" />
            </mxGeometry>
          </mxCell>
        </UserObject>
        <UserObject label="" lucidchartObjectId="g.0eSOflZ7qL" id="O1rDpLoGwMOp85sgSPhA-144">
          <mxCell style="html=1;jettySize=18;whiteSpace=wrap;fontSize=13;strokeColor=#3a414a;strokeOpacity=100;strokeWidth=1.5;rounded=1;arcSize=24;edgeStyle=orthogonalEdgeStyle;startArrow=none;endArrow=block;endFill=1;" parent="1" edge="1">
            <mxGeometry width="100" height="100" relative="1" as="geometry">
              <Array as="points" />
              <mxPoint x="285" y="422" as="sourcePoint" />
              <mxPoint x="510" y="422" as="targetPoint" />
            </mxGeometry>
          </mxCell>
        </UserObject>
        <UserObject label="" lucidchartObjectId="n.0e63lwN-sO" id="O1rDpLoGwMOp85sgSPhA-145">
          <mxCell style="html=1;jettySize=18;whiteSpace=wrap;fontSize=13;strokeColor=#3a414a;strokeOpacity=100;strokeWidth=1.5;rounded=1;arcSize=24;edgeStyle=orthogonalEdgeStyle;startArrow=none;endArrow=block;endFill=1;" parent="1" edge="1">
            <mxGeometry width="100" height="100" relative="1" as="geometry">
              <Array as="points" />
              <mxPoint x="510" y="436" as="sourcePoint" />
              <mxPoint x="285" y="436" as="targetPoint" />
            </mxGeometry>
          </mxCell>
        </UserObject>
        <mxCell id="O1rDpLoGwMOp85sgSPhA-146" value="app" style="text;html=1;resizable=0;labelBackgroundColor=default;align=center;verticalAlign=middle;fontColor=#3a414a;fontSize=13;" parent="O1rDpLoGwMOp85sgSPhA-145" vertex="1">
          <mxGeometry relative="1" as="geometry">
            <mxPoint as="offset" />
          </mxGeometry>
        </mxCell>
        <UserObject label="" lucidchartObjectId="N.0eq_g9_9mh" id="O1rDpLoGwMOp85sgSPhA-147">
          <mxCell style="html=1;jettySize=18;whiteSpace=wrap;fontSize=13;strokeColor=#3a414a;strokeOpacity=100;strokeWidth=1.5;rounded=1;arcSize=24;edgeStyle=orthogonalEdgeStyle;startArrow=none;endArrow=block;endFill=1;entryX=0.043;entryY=0.166;entryPerimeter=0;entryDx=0;entryDy=0;" parent="1" target="O1rDpLoGwMOp85sgSPhA-88" edge="1">
            <mxGeometry width="100" height="100" relative="1" as="geometry">
              <Array as="points" />
              <mxPoint x="285" y="467" as="sourcePoint" />
            </mxGeometry>
          </mxCell>
        </UserObject>
        <mxCell id="O1rDpLoGwMOp85sgSPhA-148" value="data" style="text;html=1;resizable=0;labelBackgroundColor=default;align=center;verticalAlign=middle;fontColor=#3a414a;fontSize=13;" parent="O1rDpLoGwMOp85sgSPhA-147" vertex="1">
          <mxGeometry relative="1" as="geometry">
            <mxPoint as="offset" />
          </mxGeometry>
        </mxCell>
        <UserObject label="" lucidchartObjectId="id1eyBTImxun" id="O1rDpLoGwMOp85sgSPhA-151">
          <mxCell style="html=1;jettySize=18;whiteSpace=wrap;fontSize=13;strokeColor=#3a414a;strokeOpacity=100;strokeWidth=1.5;rounded=1;arcSize=24;edgeStyle=orthogonalEdgeStyle;startArrow=none;endArrow=block;endFill=1;exitX=1.01;exitY=0.047;exitPerimeter=0;entryX=-0.012;entryY=0.154;entryPerimeter=0;" parent="1" source="O1rDpLoGwMOp85sgSPhA-90" target="O1rDpLoGwMOp85sgSPhA-164" edge="1">
            <mxGeometry width="100" height="100" relative="1" as="geometry">
              <Array as="points" />
            </mxGeometry>
          </mxCell>
        </UserObject>
        <mxCell id="O1rDpLoGwMOp85sgSPhA-152" value="select" style="text;html=1;resizable=0;labelBackgroundColor=default;align=center;verticalAlign=middle;fontColor=#3a414a;fontSize=13;" parent="O1rDpLoGwMOp85sgSPhA-151" vertex="1">
          <mxGeometry relative="1" as="geometry">
            <mxPoint as="offset" />
          </mxGeometry>
        </mxCell>
        <UserObject label="" lucidchartObjectId="Ed1e~m6.ASrR" id="O1rDpLoGwMOp85sgSPhA-153">
          <mxCell style="html=1;jettySize=18;whiteSpace=wrap;fontSize=13;strokeColor=#3a414a;strokeOpacity=100;strokeWidth=1.5;rounded=1;arcSize=24;edgeStyle=orthogonalEdgeStyle;startArrow=none;endArrow=block;endFill=1;exitX=-0.012;exitY=0.21;exitPerimeter=0;entryX=1.01;entryY=0.092;entryPerimeter=0;" parent="1" source="O1rDpLoGwMOp85sgSPhA-164" target="O1rDpLoGwMOp85sgSPhA-90" edge="1">
            <mxGeometry width="100" height="100" relative="1" as="geometry">
              <Array as="points" />
            </mxGeometry>
          </mxCell>
        </UserObject>
        <UserObject label="" lucidchartObjectId="6d1efea~IKla" id="O1rDpLoGwMOp85sgSPhA-154">
          <mxCell style="html=1;jettySize=18;whiteSpace=wrap;fontSize=13;strokeColor=#3a414a;strokeOpacity=100;strokeWidth=1.5;rounded=1;arcSize=24;edgeStyle=orthogonalEdgeStyle;startArrow=none;endArrow=block;endFill=1;" parent="1" edge="1">
            <mxGeometry width="100" height="100" relative="1" as="geometry">
              <Array as="points">
                <mxPoint x="775" y="390" />
                <mxPoint x="540" y="390" />
              </Array>
              <mxPoint x="775" y="400" as="sourcePoint" />
              <mxPoint x="540" y="400" as="targetPoint" />
            </mxGeometry>
          </mxCell>
        </UserObject>
        <mxCell id="O1rDpLoGwMOp85sgSPhA-155" value="valied" style="text;html=1;resizable=0;labelBackgroundColor=default;align=center;verticalAlign=middle;fontColor=#3a414a;fontSize=13;" parent="O1rDpLoGwMOp85sgSPhA-154" vertex="1">
          <mxGeometry relative="1" as="geometry">
            <mxPoint x="2" y="10" as="offset" />
          </mxGeometry>
        </mxCell>
        <UserObject label="" lucidchartObjectId="lg1ecNTNCC8S" id="O1rDpLoGwMOp85sgSPhA-156">
          <mxCell style="html=1;jettySize=18;whiteSpace=wrap;fontSize=13;strokeColor=#3a414a;strokeOpacity=100;strokeWidth=1.5;rounded=1;arcSize=24;edgeStyle=orthogonalEdgeStyle;startArrow=none;endArrow=block;endFill=1;exitX=1.01;exitY=0.119;exitPerimeter=0;entryX=-0.048;entryY=0.152;entryPerimeter=0;entryDx=0;entryDy=0;" parent="1" source="O1rDpLoGwMOp85sgSPhA-88" target="O1rDpLoGwMOp85sgSPhA-90" edge="1">
            <mxGeometry width="100" height="100" relative="1" as="geometry">
              <Array as="points" />
            </mxGeometry>
          </mxCell>
        </UserObject>
        <UserObject label="" lucidchartObjectId="Kg1esBAydpvk" id="O1rDpLoGwMOp85sgSPhA-157">
          <mxCell style="html=1;jettySize=18;whiteSpace=wrap;fontSize=13;strokeColor=#3a414a;strokeOpacity=100;strokeWidth=1.5;rounded=1;arcSize=24;edgeStyle=orthogonalEdgeStyle;startArrow=none;endArrow=block;endFill=1;exitX=1.011;exitY=0.232;exitPerimeter=0;entryX=-0.012;entryY=0.385;entryPerimeter=0;" parent="1" source="O1rDpLoGwMOp85sgSPhA-90" target="O1rDpLoGwMOp85sgSPhA-164" edge="1">
            <mxGeometry width="100" height="100" relative="1" as="geometry">
              <Array as="points" />
            </mxGeometry>
          </mxCell>
        </UserObject>
        <mxCell id="O1rDpLoGwMOp85sgSPhA-158" value="create id" style="text;html=1;resizable=0;labelBackgroundColor=default;align=center;verticalAlign=middle;fontColor=#3a414a;fontSize=13;" parent="O1rDpLoGwMOp85sgSPhA-157" vertex="1">
          <mxGeometry x="0.14604207985712225" relative="1" as="geometry" />
        </mxCell>
        <mxCell id="O1rDpLoGwMOp85sgSPhA-159" value="" style="html=1;overflow=block;blockSpacing=1;swimlane;childLayout=stackLayout;horizontal=1;horizontalStack=0;resizeParent=1;resizeParentMax=0;resizeLast=0;collapsible=0;fontStyle=0;marginBottom=0;swimlaneFillColor=#ffaf28;startSize=25;whiteSpace=wrap;fontSize=13;align=center;spacing=0;strokeOpacity=0;fillOpacity=100;rounded=1;absoluteArcSize=1;arcSize=12;fillColor=#ffaf28;strokeWidth=0.8;" parent="1" vertex="1">
          <mxGeometry x="1543" y="165" width="150" height="75" as="geometry" />
        </mxCell>
        <mxCell id="O1rDpLoGwMOp85sgSPhA-160" value="robot" style="part=1;html=1;resizeHeight=0;strokeColor=none;fillColor=none;verticalAlign=middle;spacingLeft=4;spacingRight=4;overflow=hidden;rotatable=0;points=[[0,0.5],[1,0.5]];portConstraint=eastwest;swimlaneFillColor=#ffaf28;strokeOpacity=0;fillOpacity=100;whiteSpace=wrap;fontSize=13;fontColor=#3a414a;align=center;" parent="O1rDpLoGwMOp85sgSPhA-159" vertex="1">
          <mxGeometry y="25" width="150" height="30" as="geometry" />
        </mxCell>
        <mxCell id="O1rDpLoGwMOp85sgSPhA-161" value="" style="line;strokeWidth=1;fillColor=none;align=left;verticalAlign=middle;spacingTop=-1;spacingLeft=3;spacingRight=3;rotatable=0;labelPosition=right;points=[];portConstraint=eastwest;" parent="O1rDpLoGwMOp85sgSPhA-159" vertex="1">
          <mxGeometry y="55" width="150" height="8" as="geometry" />
        </mxCell>
        <mxCell id="O1rDpLoGwMOp85sgSPhA-162" value="" style="part=1;html=1;resizeHeight=0;strokeColor=none;fillColor=none;verticalAlign=middle;spacingLeft=4;spacingRight=4;overflow=hidden;rotatable=0;points=[[0,0.5],[1,0.5]];portConstraint=eastwest;swimlaneFillColor=#ffaf28;strokeOpacity=0;fillOpacity=100;whiteSpace=wrap;fontSize=13;align=center;" parent="O1rDpLoGwMOp85sgSPhA-159" vertex="1">
          <mxGeometry y="63" width="150" height="12" as="geometry" />
        </mxCell>
        <mxCell id="O1rDpLoGwMOp85sgSPhA-163" value="" style="group;dropTarget=0;pointerEvents=0;" parent="1" vertex="1">
          <mxGeometry x="1049" y="250.0032971163045" width="30" height="615.1154026634168" as="geometry" />
        </mxCell>
        <UserObject label="" lucidchartObjectId="Yu5MydJHa4al" id="O1rDpLoGwMOp85sgSPhA-164">
          <mxCell style="html=1;overflow=block;blockSpacing=1;whiteSpace=wrap;fontSize=13;spacing=0;strokeColor=#f2f2f2;strokeOpacity=100;fillOpacity=100;rounded=1;absoluteArcSize=1;arcSize=12;fillColor=#ced4db;strokeWidth=0.8;" parent="O1rDpLoGwMOp85sgSPhA-163" vertex="1">
            <mxGeometry y="58.53670288369551" width="30" height="390" as="geometry" />
          </mxCell>
        </UserObject>
        <UserObject label="" lucidchartObjectId="Yu5M5Qxgzhy9" id="O1rDpLoGwMOp85sgSPhA-165">
          <mxCell style="html=1;jettySize=18;whiteSpace=wrap;fontSize=13;fontFamily=helvetica;strokeColor=#333333;strokeOpacity=100;dashed=1;fixDash=1;dashPattern=16 6;strokeWidth=0.8;rounded=1;arcSize=24;edgeStyle=orthogonalEdgeStyle;startArrow=none;endArrow=none;" parent="O1rDpLoGwMOp85sgSPhA-163" edge="1">
            <mxGeometry width="100" height="100" relative="1" as="geometry">
              <Array as="points" />
              <mxPoint x="16" y="-0.46329711630448855" as="sourcePoint" />
              <mxPoint x="16" y="615.5367028836955" as="targetPoint" />
            </mxGeometry>
          </mxCell>
        </UserObject>
        <mxCell id="O1rDpLoGwMOp85sgSPhA-166" value="" style="group;dropTarget=0;pointerEvents=0;" parent="1" vertex="1">
          <mxGeometry x="1325" y="270" width="30" height="1433.5" as="geometry" />
        </mxCell>
        <UserObject label="" lucidchartObjectId="pl1en7uQ-sje" id="O1rDpLoGwMOp85sgSPhA-167">
          <mxCell style="html=1;overflow=block;blockSpacing=1;whiteSpace=wrap;fontSize=13;spacing=0;strokeColor=#f2f2f2;strokeOpacity=100;fillOpacity=100;rounded=1;absoluteArcSize=1;arcSize=12;fillColor=#ced4db;strokeWidth=0.8;" parent="O1rDpLoGwMOp85sgSPhA-166" vertex="1">
            <mxGeometry y="70" width="30" height="975.21" as="geometry" />
          </mxCell>
        </UserObject>
        <UserObject label="" lucidchartObjectId="pl1eduKdgRvz" id="O1rDpLoGwMOp85sgSPhA-168">
          <mxCell style="html=1;jettySize=18;whiteSpace=wrap;fontSize=13;fontFamily=helvetica;strokeColor=#333333;strokeOpacity=100;dashed=1;fixDash=1;dashPattern=16 6;strokeWidth=0.8;rounded=1;arcSize=24;edgeStyle=orthogonalEdgeStyle;startArrow=none;endArrow=none;" parent="O1rDpLoGwMOp85sgSPhA-166" edge="1">
            <mxGeometry width="100" height="100" relative="1" as="geometry">
              <Array as="points">
                <mxPoint x="20" y="1" />
              </Array>
              <mxPoint x="15" y="1.1652285032963097" as="sourcePoint" />
              <mxPoint x="20" y="1050" as="targetPoint" />
            </mxGeometry>
          </mxCell>
        </UserObject>
        <mxCell id="O1rDpLoGwMOp85sgSPhA-169" value="" style="group;dropTarget=0;pointerEvents=0;" parent="1" vertex="1">
          <mxGeometry x="1603" y="249.75" width="30" height="1420.25" as="geometry" />
        </mxCell>
        <UserObject label="" lucidchartObjectId="yl1eDsTMXpNo" id="O1rDpLoGwMOp85sgSPhA-170">
          <mxCell style="html=1;overflow=block;blockSpacing=1;whiteSpace=wrap;fontSize=13;spacing=0;strokeColor=#f2f2f2;strokeOpacity=100;fillOpacity=100;rounded=1;absoluteArcSize=1;arcSize=12;fillColor=#ced4db;strokeWidth=0.8;" parent="O1rDpLoGwMOp85sgSPhA-169" vertex="1">
            <mxGeometry y="134.49437640772027" width="30" height="900.4773699401014" as="geometry" />
          </mxCell>
        </UserObject>
        <UserObject label="" lucidchartObjectId="yl1ey6jIs6Oy" id="O1rDpLoGwMOp85sgSPhA-171">
          <mxCell style="html=1;jettySize=18;whiteSpace=wrap;fontSize=13;fontFamily=helvetica;strokeColor=#333333;strokeOpacity=100;dashed=1;fixDash=1;dashPattern=16 6;strokeWidth=0.8;rounded=1;arcSize=24;edgeStyle=orthogonalEdgeStyle;startArrow=none;endArrow=none;" parent="O1rDpLoGwMOp85sgSPhA-169" edge="1">
            <mxGeometry width="100" height="100" relative="1" as="geometry">
              <Array as="points">
                <mxPoint x="16" y="20.67" />
              </Array>
              <mxPoint x="14" y="20.24722908329494" as="sourcePoint" />
              <mxPoint x="16" y="1069.92" as="targetPoint" />
            </mxGeometry>
          </mxCell>
        </UserObject>
        <UserObject label="" lucidchartObjectId="yc1eG7ucA3Ha" id="O1rDpLoGwMOp85sgSPhA-173">
          <mxCell style="html=1;jettySize=18;whiteSpace=wrap;fontSize=13;strokeColor=#3a414a;strokeOpacity=100;strokeWidth=1.5;rounded=1;arcSize=24;edgeStyle=orthogonalEdgeStyle;startArrow=none;endArrow=block;endFill=1;" parent="1" edge="1">
            <mxGeometry x="-0.086" y="13" width="100" height="100" relative="1" as="geometry">
              <Array as="points">
                <mxPoint x="780" y="380" />
              </Array>
              <mxPoint x="540" y="380" as="sourcePoint" />
              <mxPoint x="780" y="380" as="targetPoint" />
              <mxPoint as="offset" />
            </mxGeometry>
          </mxCell>
        </UserObject>
        <mxCell id="O1rDpLoGwMOp85sgSPhA-174" value="id and pass" style="text;html=1;resizable=0;labelBackgroundColor=default;align=center;verticalAlign=middle;fontColor=#3a414a;fontSize=13;" parent="O1rDpLoGwMOp85sgSPhA-173" vertex="1">
          <mxGeometry x="0.11895850917285" relative="1" as="geometry">
            <mxPoint y="-11.661000000000001" as="offset" />
          </mxGeometry>
        </mxCell>
        <mxCell id="O1rDpLoGwMOp85sgSPhA-178" value="" style="endArrow=classic;html=1;rounded=0;" parent="1" edge="1">
          <mxGeometry width="50" height="50" relative="1" as="geometry">
            <mxPoint x="820" y="480" as="sourcePoint" />
            <mxPoint x="1620" y="480" as="targetPoint" />
            <Array as="points" />
          </mxGeometry>
        </mxCell>
        <mxCell id="O1rDpLoGwMOp85sgSPhA-179" value="access sensor" style="edgeLabel;html=1;align=center;verticalAlign=middle;resizable=0;points=[];" parent="O1rDpLoGwMOp85sgSPhA-178" vertex="1" connectable="0">
          <mxGeometry x="-0.0305" y="1" relative="1" as="geometry">
            <mxPoint y="-9" as="offset" />
          </mxGeometry>
        </mxCell>
        <mxCell id="O1rDpLoGwMOp85sgSPhA-180" value="" style="endArrow=classic;html=1;rounded=0;entryX=1;entryY=0.283;entryDx=0;entryDy=0;entryPerimeter=0;" parent="1" target="O1rDpLoGwMOp85sgSPhA-90" edge="1">
          <mxGeometry width="50" height="50" relative="1" as="geometry">
            <mxPoint x="1620" y="490" as="sourcePoint" />
            <mxPoint x="1240" y="440" as="targetPoint" />
          </mxGeometry>
        </mxCell>
        <mxCell id="O1rDpLoGwMOp85sgSPhA-181" value="data" style="edgeLabel;html=1;align=center;verticalAlign=middle;resizable=0;points=[];" parent="O1rDpLoGwMOp85sgSPhA-180" vertex="1" connectable="0">
          <mxGeometry x="0.8299" relative="1" as="geometry">
            <mxPoint as="offset" />
          </mxGeometry>
        </mxCell>
        <mxCell id="O1rDpLoGwMOp85sgSPhA-182" value="" style="endArrow=classic;html=1;rounded=0;exitX=0.978;exitY=0.319;exitDx=0;exitDy=0;exitPerimeter=0;" parent="1" source="O1rDpLoGwMOp85sgSPhA-90" edge="1">
          <mxGeometry width="50" height="50" relative="1" as="geometry">
            <mxPoint x="1190" y="490" as="sourcePoint" />
            <mxPoint x="1060" y="507" as="targetPoint" />
          </mxGeometry>
        </mxCell>
        <mxCell id="O1rDpLoGwMOp85sgSPhA-184" value="" style="endArrow=none;dashed=1;html=1;dashPattern=1 3;strokeWidth=2;rounded=0;" parent="1" edge="1">
          <mxGeometry width="50" height="50" relative="1" as="geometry">
            <mxPoint x="210" y="410" as="sourcePoint" />
            <mxPoint x="1670" y="410" as="targetPoint" />
          </mxGeometry>
        </mxCell>
        <mxCell id="O1rDpLoGwMOp85sgSPhA-186" value="ragister" style="edgeLabel;html=1;align=center;verticalAlign=middle;resizable=0;points=[];" parent="O1rDpLoGwMOp85sgSPhA-184" vertex="1" connectable="0">
          <mxGeometry x="-0.9505" y="1" relative="1" as="geometry">
            <mxPoint x="-15" y="-12" as="offset" />
          </mxGeometry>
        </mxCell>
        <mxCell id="O1rDpLoGwMOp85sgSPhA-207" value="" style="group;dropTarget=0;pointerEvents=0;movable=1;resizable=1;rotatable=1;deletable=1;editable=1;connectable=1;" parent="1" vertex="1">
          <mxGeometry x="1049" y="640" width="30" height="760" as="geometry" />
        </mxCell>
        <UserObject label="" lucidchartObjectId="Yu5MydJHa4al" id="O1rDpLoGwMOp85sgSPhA-208">
          <mxCell style="html=1;overflow=block;blockSpacing=1;whiteSpace=wrap;fontSize=13;spacing=0;strokeColor=#f2f2f2;strokeOpacity=100;fillOpacity=100;rounded=1;absoluteArcSize=1;arcSize=12;fillColor=#ced4db;strokeWidth=0.8;movable=0;resizable=0;rotatable=0;deletable=0;editable=0;connectable=0;" parent="O1rDpLoGwMOp85sgSPhA-207" vertex="1">
            <mxGeometry y="58.53670288369551" width="30" height="390" as="geometry" />
          </mxCell>
        </UserObject>
        <UserObject label="" lucidchartObjectId="Yu5M5Qxgzhy9" id="O1rDpLoGwMOp85sgSPhA-209">
          <mxCell style="html=1;jettySize=18;whiteSpace=wrap;fontSize=13;fontFamily=helvetica;strokeColor=#333333;strokeOpacity=100;dashed=1;fixDash=1;dashPattern=16 6;strokeWidth=0.8;rounded=1;arcSize=24;edgeStyle=orthogonalEdgeStyle;startArrow=none;endArrow=none;movable=0;resizable=0;rotatable=0;deletable=0;editable=0;connectable=0;" parent="O1rDpLoGwMOp85sgSPhA-207" edge="1">
            <mxGeometry width="100" height="100" relative="1" as="geometry">
              <Array as="points" />
              <mxPoint x="16" y="-0.5724223566290356" as="sourcePoint" />
              <mxPoint x="16" y="760.5205334901798" as="targetPoint" />
            </mxGeometry>
          </mxCell>
        </UserObject>
        <UserObject label="" lucidchartObjectId="Yu5MsRc69goB" id="O1rDpLoGwMOp85sgSPhA-231">
          <mxCell style="html=1;overflow=block;blockSpacing=1;whiteSpace=wrap;fontSize=13;spacing=0;strokeColor=#f2f2f2;strokeOpacity=100;fillOpacity=100;rounded=1;absoluteArcSize=1;arcSize=12;fillColor=#ced4db;strokeWidth=0.8;" parent="1" vertex="1">
            <mxGeometry x="779.5" y="830" width="30" height="487" as="geometry" />
          </mxCell>
        </UserObject>
        <UserObject label="symptoms" lucidchartObjectId="PA0e1QfVosfQ" id="O1rDpLoGwMOp85sgSPhA-109">
          <mxCell style="html=1;blockSpacing=1;whiteSpace=wrap;shape=mxgraph.sysml.package2;xSize=90;overflow=fill;fontSize=13;fontColor=#3a414a;align=left;spacing=0;strokeColor=#3a414a;strokeOpacity=100;fillOpacity=100;rounded=1;absoluteArcSize=1;arcSize=12;fillColor=#ffffff;strokeWidth=1.5;movable=1;resizable=1;rotatable=1;deletable=1;editable=1;connectable=1;" parent="1" vertex="1">
            <mxGeometry x="198" y="623" width="1482" height="169" as="geometry" />
          </mxCell>
        </UserObject>
        <UserObject label="" lucidchartObjectId="jt0ez7OGBEv2" id="O1rDpLoGwMOp85sgSPhA-110">
          <mxCell style="html=1;jettySize=18;whiteSpace=wrap;fontSize=13;strokeColor=#3a414a;strokeOpacity=100;strokeWidth=1.5;rounded=1;arcSize=24;edgeStyle=orthogonalEdgeStyle;startArrow=none;endArrow=block;endFill=1;movable=1;resizable=1;rotatable=1;deletable=1;editable=1;connectable=1;" parent="1" edge="1">
            <mxGeometry width="100" height="100" relative="1" as="geometry">
              <Array as="points" />
              <mxPoint x="510" y="540" as="sourcePoint" />
              <mxPoint x="288" y="540" as="targetPoint" />
            </mxGeometry>
          </mxCell>
        </UserObject>
        <mxCell id="O1rDpLoGwMOp85sgSPhA-111" value="reservation or follow up" style="text;html=1;resizable=1;labelBackgroundColor=default;align=center;verticalAlign=middle;fontColor=#3a414a;fontSize=13;movable=1;rotatable=1;deletable=1;editable=1;connectable=1;" parent="O1rDpLoGwMOp85sgSPhA-110" vertex="1">
          <mxGeometry relative="1" as="geometry">
            <mxPoint as="offset" />
          </mxGeometry>
        </mxCell>
        <UserObject label="" lucidchartObjectId="Iu0e4VGC_L39" id="O1rDpLoGwMOp85sgSPhA-112">
          <mxCell style="html=1;jettySize=18;whiteSpace=wrap;fontSize=13;strokeColor=#3a414a;strokeOpacity=100;strokeWidth=1.5;rounded=1;arcSize=24;edgeStyle=orthogonalEdgeStyle;startArrow=none;endArrow=block;endFill=1;movable=1;resizable=1;rotatable=1;deletable=1;editable=1;connectable=1;" parent="1" edge="1">
            <mxGeometry width="100" height="100" relative="1" as="geometry">
              <Array as="points" />
              <mxPoint x="288" y="582" as="sourcePoint" />
              <mxPoint x="510" y="582" as="targetPoint" />
            </mxGeometry>
          </mxCell>
        </UserObject>
        <UserObject label="" lucidchartObjectId="2v0e-ggYbUSM" id="O1rDpLoGwMOp85sgSPhA-113">
          <mxCell style="html=1;jettySize=18;whiteSpace=wrap;fontSize=13;strokeColor=#3a414a;strokeOpacity=100;strokeWidth=1.5;rounded=1;arcSize=24;edgeStyle=orthogonalEdgeStyle;startArrow=none;endArrow=block;endFill=1;movable=1;resizable=1;rotatable=1;deletable=1;editable=1;connectable=1;" parent="1" edge="1">
            <mxGeometry width="100" height="100" relative="1" as="geometry">
              <Array as="points">
                <mxPoint x="509.92" y="599" />
                <mxPoint x="287.92" y="599" />
              </Array>
              <mxPoint x="500" y="599" as="sourcePoint" />
              <mxPoint x="300" y="599" as="targetPoint" />
            </mxGeometry>
          </mxCell>
        </UserObject>
        <mxCell id="O1rDpLoGwMOp85sgSPhA-114" value="specialties or symptoms" style="text;html=1;resizable=1;labelBackgroundColor=default;align=center;verticalAlign=middle;fontColor=#3a414a;fontSize=13;movable=1;rotatable=1;deletable=1;editable=1;connectable=1;" parent="O1rDpLoGwMOp85sgSPhA-113" vertex="1">
          <mxGeometry x="0.1324085862014448" relative="1" as="geometry">
            <mxPoint y="12.618564015406946" as="offset" />
          </mxGeometry>
        </mxCell>
        <UserObject label="" lucidchartObjectId="oD0eng2BQm8f" id="O1rDpLoGwMOp85sgSPhA-115">
          <mxCell style="html=1;jettySize=18;whiteSpace=wrap;fontSize=13;strokeColor=#3a414a;strokeOpacity=100;strokeWidth=1.5;rounded=1;arcSize=24;edgeStyle=orthogonalEdgeStyle;startArrow=none;endArrow=block;endFill=1;movable=1;resizable=1;rotatable=1;deletable=1;editable=1;connectable=1;" parent="1" edge="1">
            <mxGeometry width="100" height="100" relative="1" as="geometry">
              <Array as="points">
                <mxPoint x="399" y="642" />
                <mxPoint x="510" y="641" />
              </Array>
              <mxPoint x="288" y="642" as="sourcePoint" />
              <mxPoint x="510" y="641" as="targetPoint" />
            </mxGeometry>
          </mxCell>
        </UserObject>
        <UserObject label="" lucidchartObjectId="MY0eOtxH3q46" id="O1rDpLoGwMOp85sgSPhA-116">
          <mxCell style="html=1;jettySize=18;whiteSpace=wrap;fontSize=13;strokeColor=#3a414a;strokeOpacity=100;strokeWidth=1.5;rounded=1;arcSize=24;edgeStyle=orthogonalEdgeStyle;startArrow=none;endArrow=block;endFill=1;movable=1;resizable=1;rotatable=1;deletable=1;editable=1;connectable=1;" parent="1" edge="1">
            <mxGeometry width="100" height="100" relative="1" as="geometry">
              <Array as="points">
                <mxPoint x="399" y="672" />
                <mxPoint x="300" y="673" />
              </Array>
              <mxPoint x="510" y="672" as="sourcePoint" />
              <mxPoint x="288" y="673" as="targetPoint" />
            </mxGeometry>
          </mxCell>
        </UserObject>
        <mxCell id="O1rDpLoGwMOp85sgSPhA-117" value="list of symptoms" style="text;html=1;resizable=1;labelBackgroundColor=default;align=center;verticalAlign=middle;fontColor=#3a414a;fontSize=13;movable=1;rotatable=1;deletable=1;editable=1;connectable=1;" parent="O1rDpLoGwMOp85sgSPhA-116" vertex="1">
          <mxGeometry x="0.141459711123463" relative="1" as="geometry">
            <mxPoint y="-10" as="offset" />
          </mxGeometry>
        </mxCell>
        <UserObject label="" lucidchartObjectId="3Z0eO5Rxk5OR" id="O1rDpLoGwMOp85sgSPhA-118">
          <mxCell style="html=1;jettySize=18;whiteSpace=wrap;fontSize=13;strokeColor=#3a414a;strokeOpacity=100;strokeWidth=1.5;rounded=1;arcSize=24;edgeStyle=orthogonalEdgeStyle;startArrow=none;endArrow=block;endFill=1;movable=1;resizable=1;rotatable=1;deletable=1;editable=1;connectable=1;" parent="1" edge="1">
            <mxGeometry width="100" height="100" relative="1" as="geometry">
              <Array as="points">
                <mxPoint x="288" y="709" />
                <mxPoint x="510" y="709" />
              </Array>
              <mxPoint x="290" y="720" as="sourcePoint" />
              <mxPoint x="510" y="708" as="targetPoint" />
            </mxGeometry>
          </mxCell>
        </UserObject>
        <mxCell id="O1rDpLoGwMOp85sgSPhA-119" value="select symptoms" style="text;html=1;resizable=1;labelBackgroundColor=default;align=center;verticalAlign=middle;fontColor=#3a414a;fontSize=13;movable=1;rotatable=1;deletable=1;editable=1;connectable=1;" parent="O1rDpLoGwMOp85sgSPhA-118" vertex="1">
          <mxGeometry relative="1" as="geometry">
            <mxPoint y="-20" as="offset" />
          </mxGeometry>
        </mxCell>
        <UserObject label="" lucidchartObjectId="M00eupCO9YNc" id="O1rDpLoGwMOp85sgSPhA-120">
          <mxCell style="html=1;jettySize=18;whiteSpace=wrap;fontSize=13;strokeColor=#3a414a;strokeOpacity=100;strokeWidth=1.5;rounded=1;arcSize=24;edgeStyle=orthogonalEdgeStyle;startArrow=none;endArrow=block;endFill=1;movable=1;resizable=1;rotatable=1;deletable=1;editable=1;connectable=1;" parent="1" edge="1">
            <mxGeometry width="100" height="100" relative="1" as="geometry">
              <Array as="points">
                <mxPoint x="399" y="732" />
                <mxPoint x="510" y="731" />
              </Array>
              <mxPoint x="288" y="732" as="sourcePoint" />
              <mxPoint x="510" y="731" as="targetPoint" />
            </mxGeometry>
          </mxCell>
        </UserObject>
        <UserObject label="" lucidchartObjectId="T00eYp~IB-07" id="O1rDpLoGwMOp85sgSPhA-121">
          <mxCell style="html=1;jettySize=18;whiteSpace=wrap;fontSize=13;strokeColor=#3a414a;strokeOpacity=100;strokeWidth=1.5;rounded=1;arcSize=24;edgeStyle=orthogonalEdgeStyle;startArrow=none;endArrow=block;endFill=1;movable=1;resizable=1;rotatable=1;deletable=1;editable=1;connectable=1;" parent="1" edge="1">
            <mxGeometry width="100" height="100" relative="1" as="geometry">
              <Array as="points" />
              <mxPoint x="510" y="757" as="sourcePoint" />
              <mxPoint x="288" y="757" as="targetPoint" />
            </mxGeometry>
          </mxCell>
        </UserObject>
        <mxCell id="O1rDpLoGwMOp85sgSPhA-122" value="list of specialties" style="text;html=1;resizable=1;labelBackgroundColor=default;align=center;verticalAlign=middle;fontColor=#3a414a;fontSize=13;movable=1;rotatable=1;deletable=1;editable=1;connectable=1;" parent="O1rDpLoGwMOp85sgSPhA-121" vertex="1">
          <mxGeometry x="0.12348209962575907" relative="1" as="geometry">
            <mxPoint as="offset" />
          </mxGeometry>
        </mxCell>
        <UserObject label="" lucidchartObjectId="A10eSVYvRxfG" id="O1rDpLoGwMOp85sgSPhA-123">
          <mxCell style="html=1;jettySize=18;whiteSpace=wrap;fontSize=13;strokeColor=#3a414a;strokeOpacity=100;strokeWidth=1.5;rounded=1;arcSize=24;edgeStyle=orthogonalEdgeStyle;startArrow=none;endArrow=block;endFill=1;movable=1;resizable=1;rotatable=1;deletable=1;editable=1;connectable=1;" parent="1" edge="1">
            <mxGeometry width="100" height="100" relative="1" as="geometry">
              <Array as="points">
                <mxPoint x="399" y="777" />
                <mxPoint x="399" y="770" />
                <mxPoint x="510" y="770" />
              </Array>
              <mxPoint x="288" y="777" as="sourcePoint" />
              <mxPoint x="510" y="770" as="targetPoint" />
            </mxGeometry>
          </mxCell>
        </UserObject>
        <mxCell id="O1rDpLoGwMOp85sgSPhA-124" value="select specialties" style="text;html=1;resizable=1;labelBackgroundColor=default;align=center;verticalAlign=middle;fontColor=#3a414a;fontSize=13;movable=1;rotatable=1;deletable=1;editable=1;connectable=1;" parent="O1rDpLoGwMOp85sgSPhA-123" vertex="1">
          <mxGeometry relative="1" as="geometry">
            <mxPoint as="offset" />
          </mxGeometry>
        </mxCell>
        <mxCell id="O1rDpLoGwMOp85sgSPhA-189" value="" style="endArrow=none;dashed=1;html=1;dashPattern=1 3;strokeWidth=2;rounded=0;movable=0;resizable=0;rotatable=0;deletable=0;editable=0;connectable=0;" parent="1" edge="1">
          <mxGeometry width="50" height="50" relative="1" as="geometry">
            <mxPoint x="198" y="720" as="sourcePoint" />
            <mxPoint x="1658" y="720" as="targetPoint" />
          </mxGeometry>
        </mxCell>
        <mxCell id="O1rDpLoGwMOp85sgSPhA-190" value="specialties" style="edgeLabel;html=1;align=center;verticalAlign=middle;resizable=1;points=[];movable=1;rotatable=1;deletable=1;editable=1;connectable=1;" parent="O1rDpLoGwMOp85sgSPhA-189" vertex="1" connectable="0">
          <mxGeometry x="-0.9505" y="1" relative="1" as="geometry">
            <mxPoint x="-3" y="11" as="offset" />
          </mxGeometry>
        </mxCell>
        <mxCell id="O1rDpLoGwMOp85sgSPhA-193" value="" style="endArrow=none;dashed=1;html=1;dashPattern=1 3;strokeWidth=2;rounded=0;movable=1;resizable=1;rotatable=1;deletable=1;editable=1;connectable=1;" parent="1" edge="1">
          <mxGeometry width="50" height="50" relative="1" as="geometry">
            <mxPoint x="190" y="820" as="sourcePoint" />
            <mxPoint x="1650" y="820" as="targetPoint" />
          </mxGeometry>
        </mxCell>
        <mxCell id="O1rDpLoGwMOp85sgSPhA-194" value="follow up" style="edgeLabel;html=1;align=center;verticalAlign=middle;resizable=1;points=[];movable=1;rotatable=1;deletable=1;editable=1;connectable=1;" parent="O1rDpLoGwMOp85sgSPhA-193" vertex="1" connectable="0">
          <mxGeometry x="-0.9505" y="1" relative="1" as="geometry">
            <mxPoint x="-6" y="-9" as="offset" />
          </mxGeometry>
        </mxCell>
        <mxCell id="O1rDpLoGwMOp85sgSPhA-196" value="" style="endArrow=classic;html=1;rounded=0;movable=1;resizable=1;rotatable=1;deletable=1;editable=1;connectable=1;" parent="1" edge="1">
          <mxGeometry width="50" height="50" relative="1" as="geometry">
            <mxPoint x="540" y="640" as="sourcePoint" />
            <mxPoint x="770" y="640" as="targetPoint" />
            <Array as="points">
              <mxPoint x="580" y="640" />
            </Array>
          </mxGeometry>
        </mxCell>
        <mxCell id="O1rDpLoGwMOp85sgSPhA-197" value="" style="endArrow=classic;html=1;rounded=0;movable=1;resizable=1;rotatable=1;deletable=1;editable=1;connectable=1;" parent="1" edge="1">
          <mxGeometry width="50" height="50" relative="1" as="geometry">
            <mxPoint x="810" y="640" as="sourcePoint" />
            <mxPoint x="1040" y="640" as="targetPoint" />
            <Array as="points" />
          </mxGeometry>
        </mxCell>
        <mxCell id="O1rDpLoGwMOp85sgSPhA-199" value="" style="endArrow=classic;html=1;rounded=0;movable=1;resizable=1;rotatable=1;deletable=1;editable=1;connectable=1;" parent="1" edge="1">
          <mxGeometry width="50" height="50" relative="1" as="geometry">
            <mxPoint x="1060" y="660" as="sourcePoint" />
            <mxPoint x="800" y="660" as="targetPoint" />
          </mxGeometry>
        </mxCell>
        <mxCell id="O1rDpLoGwMOp85sgSPhA-200" value="" style="endArrow=classic;html=1;rounded=0;movable=1;resizable=1;rotatable=1;deletable=1;editable=1;connectable=1;" parent="1" edge="1">
          <mxGeometry width="50" height="50" relative="1" as="geometry">
            <mxPoint x="780" y="670" as="sourcePoint" />
            <mxPoint x="540" y="670" as="targetPoint" />
          </mxGeometry>
        </mxCell>
        <mxCell id="O1rDpLoGwMOp85sgSPhA-201" value="" style="endArrow=classic;html=1;rounded=0;movable=1;resizable=1;rotatable=1;deletable=1;editable=1;connectable=1;" parent="1" edge="1">
          <mxGeometry width="50" height="50" relative="1" as="geometry">
            <mxPoint x="540" y="730" as="sourcePoint" />
            <mxPoint x="770" y="730" as="targetPoint" />
            <Array as="points">
              <mxPoint x="580" y="730" />
            </Array>
          </mxGeometry>
        </mxCell>
        <mxCell id="O1rDpLoGwMOp85sgSPhA-202" value="" style="endArrow=classic;html=1;rounded=0;entryX=0.033;entryY=0.106;entryDx=0;entryDy=0;entryPerimeter=0;movable=1;resizable=1;rotatable=1;deletable=1;editable=1;connectable=1;" parent="1" target="O1rDpLoGwMOp85sgSPhA-208" edge="1">
          <mxGeometry width="50" height="50" relative="1" as="geometry">
            <mxPoint x="800" y="740.4" as="sourcePoint" />
            <mxPoint x="1056.54" y="739.9999999999999" as="targetPoint" />
            <Array as="points" />
          </mxGeometry>
        </mxCell>
        <mxCell id="O1rDpLoGwMOp85sgSPhA-203" value="" style="endArrow=classic;html=1;rounded=0;movable=1;resizable=1;rotatable=1;deletable=1;editable=1;connectable=1;" parent="1" edge="1">
          <mxGeometry width="50" height="50" relative="1" as="geometry">
            <mxPoint x="1060" y="760" as="sourcePoint" />
            <mxPoint x="800" y="760" as="targetPoint" />
          </mxGeometry>
        </mxCell>
        <mxCell id="O1rDpLoGwMOp85sgSPhA-204" value="" style="endArrow=classic;html=1;rounded=0;movable=1;resizable=1;rotatable=1;deletable=1;editable=1;connectable=1;" parent="1" edge="1">
          <mxGeometry width="50" height="50" relative="1" as="geometry">
            <mxPoint x="780" y="760" as="sourcePoint" />
            <mxPoint x="540" y="760" as="targetPoint" />
          </mxGeometry>
        </mxCell>
        <mxCell id="O1rDpLoGwMOp85sgSPhA-223" value="" style="endArrow=classic;html=1;rounded=0;exitX=0.228;exitY=0.456;exitDx=0;exitDy=0;exitPerimeter=0;movable=1;resizable=1;rotatable=1;deletable=1;editable=1;connectable=1;" parent="1" source="O1rDpLoGwMOp85sgSPhA-109" edge="1">
          <mxGeometry width="50" height="50" relative="1" as="geometry">
            <mxPoint x="660" y="750" as="sourcePoint" />
            <mxPoint x="790" y="697" as="targetPoint" />
          </mxGeometry>
        </mxCell>
        <mxCell id="O1rDpLoGwMOp85sgSPhA-225" value="" style="endArrow=classic;html=1;rounded=0;movable=0;resizable=0;rotatable=0;deletable=0;editable=0;connectable=0;" parent="1" edge="1">
          <mxGeometry width="50" height="50" relative="1" as="geometry">
            <mxPoint x="810" y="690" as="sourcePoint" />
            <mxPoint x="1340" y="690" as="targetPoint" />
            <Array as="points">
              <mxPoint x="830" y="690" />
            </Array>
          </mxGeometry>
        </mxCell>
        <mxCell id="O1rDpLoGwMOp85sgSPhA-226" value="" style="endArrow=classic;html=1;rounded=0;movable=0;resizable=0;rotatable=0;deletable=0;editable=0;connectable=0;" parent="1" edge="1">
          <mxGeometry width="50" height="50" relative="1" as="geometry">
            <mxPoint x="1340" y="700" as="sourcePoint" />
            <mxPoint x="800" y="700" as="targetPoint" />
          </mxGeometry>
        </mxCell>
        <mxCell id="O1rDpLoGwMOp85sgSPhA-227" value="spicialist" style="edgeLabel;html=1;align=center;verticalAlign=middle;resizable=1;points=[];movable=1;rotatable=1;deletable=1;editable=1;connectable=1;" parent="O1rDpLoGwMOp85sgSPhA-226" vertex="1" connectable="0">
          <mxGeometry x="0.4288" y="5" relative="1" as="geometry">
            <mxPoint x="15" y="3" as="offset" />
          </mxGeometry>
        </mxCell>
        <mxCell id="O1rDpLoGwMOp85sgSPhA-172" style="edgeStyle=orthogonalEdgeStyle;rounded=0;orthogonalLoop=1;jettySize=auto;html=1;exitX=0;exitY=0;exitDx=0;exitDy=0;" parent="1" source="O1rDpLoGwMOp85sgSPhA-119" target="O1rDpLoGwMOp85sgSPhA-109" edge="1">
          <mxGeometry relative="1" as="geometry" />
        </mxCell>
        <mxCell id="3gJggRkjq9Gqlf8AvucY-22" value="" style="group" vertex="1" connectable="0" parent="1">
          <mxGeometry x="290" y="892.5" width="1580" height="417.5" as="geometry" />
        </mxCell>
        <mxCell id="3gJggRkjq9Gqlf8AvucY-8" value="" style="endArrow=classic;html=1;rounded=0;fontFamily=Helvetica;fontSize=16;fontColor=default;movable=1;resizable=1;rotatable=1;deletable=1;editable=1;connectable=1;" edge="1" parent="3gJggRkjq9Gqlf8AvucY-22">
          <mxGeometry width="50" height="50" relative="1" as="geometry">
            <mxPoint x="2" y="20" as="sourcePoint" />
            <mxPoint x="222" y="20" as="targetPoint" />
          </mxGeometry>
        </mxCell>
        <mxCell id="3gJggRkjq9Gqlf8AvucY-10" value="" style="endArrow=classic;html=1;rounded=0;fontFamily=Helvetica;fontSize=16;fontColor=default;entryX=0.585;entryY=0.412;entryDx=0;entryDy=0;entryPerimeter=0;movable=1;resizable=1;rotatable=1;deletable=1;editable=1;connectable=1;" edge="1" parent="3gJggRkjq9Gqlf8AvucY-22">
          <mxGeometry width="50" height="50" relative="1" as="geometry">
            <mxPoint x="512" y="10" as="sourcePoint" />
            <mxPoint x="770.6700000000001" y="10.159999999999854" as="targetPoint" />
            <Array as="points">
              <mxPoint x="552" y="10" />
            </Array>
          </mxGeometry>
        </mxCell>
        <UserObject label="" lucidchartObjectId="3E0ev2S.UR4R" id="O1rDpLoGwMOp85sgSPhA-126">
          <mxCell style="html=1;jettySize=18;whiteSpace=wrap;fontSize=13;strokeColor=#3a414a;strokeOpacity=100;strokeWidth=1.5;rounded=1;arcSize=24;edgeStyle=orthogonalEdgeStyle;startArrow=none;endArrow=block;endFill=1;movable=1;resizable=1;rotatable=1;deletable=1;editable=1;connectable=1;" parent="3gJggRkjq9Gqlf8AvucY-22" edge="1">
            <mxGeometry width="100" height="100" relative="1" as="geometry">
              <Array as="points" />
              <mxPoint y="110" as="sourcePoint" />
              <mxPoint x="222" y="110" as="targetPoint" />
            </mxGeometry>
          </mxCell>
        </UserObject>
        <mxCell id="O1rDpLoGwMOp85sgSPhA-127" value="select doctor" style="text;html=1;resizable=1;labelBackgroundColor=default;align=center;verticalAlign=middle;fontColor=#3a414a;fontSize=13;movable=1;rotatable=1;deletable=1;editable=1;connectable=1;container=0;" parent="O1rDpLoGwMOp85sgSPhA-126" vertex="1">
          <mxGeometry x="-0.14158591017843203" relative="1" as="geometry">
            <mxPoint as="offset" />
          </mxGeometry>
        </mxCell>
        <UserObject label="" lucidchartObjectId="DU0evFNMxDL7" id="O1rDpLoGwMOp85sgSPhA-130">
          <mxCell style="html=1;jettySize=18;whiteSpace=wrap;fontSize=13;strokeColor=#3a414a;strokeOpacity=100;strokeWidth=1.5;rounded=1;arcSize=24;edgeStyle=orthogonalEdgeStyle;startArrow=none;endArrow=block;endFill=1;exitX=-0.012;exitY=0.377;exitPerimeter=0;movable=1;resizable=1;rotatable=1;deletable=1;editable=1;connectable=1;" parent="3gJggRkjq9Gqlf8AvucY-22" edge="1">
            <mxGeometry width="100" height="100" relative="1" as="geometry">
              <Array as="points">
                <mxPoint x="52.360000000000014" y="80" />
                <mxPoint x="52.360000000000014" y="80" />
              </Array>
              <mxPoint x="0.36000000000001364" y="80" as="targetPoint" />
              <mxPoint x="222.0000000000001" y="80.65599999999995" as="sourcePoint" />
            </mxGeometry>
          </mxCell>
        </UserObject>
        <mxCell id="O1rDpLoGwMOp85sgSPhA-131" value="list of doctors" style="text;html=1;resizable=1;labelBackgroundColor=default;align=center;verticalAlign=middle;fontColor=#3a414a;fontSize=13;movable=1;rotatable=1;deletable=1;editable=1;connectable=1;container=0;" parent="O1rDpLoGwMOp85sgSPhA-130" vertex="1">
          <mxGeometry relative="1" as="geometry">
            <mxPoint as="offset" />
          </mxGeometry>
        </mxCell>
        <UserObject label="" lucidchartObjectId="nX0eeAe1jNDv" id="O1rDpLoGwMOp85sgSPhA-132">
          <mxCell style="html=1;jettySize=18;whiteSpace=wrap;fontSize=13;strokeColor=#3a414a;strokeOpacity=100;strokeWidth=1.5;rounded=1;arcSize=24;edgeStyle=orthogonalEdgeStyle;startArrow=none;endArrow=block;endFill=1;movable=1;resizable=1;rotatable=1;deletable=1;editable=1;connectable=1;" parent="3gJggRkjq9Gqlf8AvucY-22" edge="1">
            <mxGeometry width="100" height="100" relative="1" as="geometry">
              <Array as="points" />
              <mxPoint x="222" y="157" as="sourcePoint" />
              <mxPoint y="157" as="targetPoint" />
            </mxGeometry>
          </mxCell>
        </UserObject>
        <mxCell id="O1rDpLoGwMOp85sgSPhA-133" value="done and queue" style="text;html=1;resizable=1;labelBackgroundColor=default;align=center;verticalAlign=middle;fontColor=#3a414a;fontSize=13;movable=1;rotatable=1;deletable=1;editable=1;connectable=1;container=0;" parent="O1rDpLoGwMOp85sgSPhA-132" vertex="1">
          <mxGeometry relative="1" as="geometry">
            <mxPoint as="offset" />
          </mxGeometry>
        </mxCell>
        <mxCell id="O1rDpLoGwMOp85sgSPhA-230" value="" style="endArrow=classic;html=1;rounded=0;movable=1;resizable=1;rotatable=1;deletable=1;editable=1;connectable=1;" parent="3gJggRkjq9Gqlf8AvucY-22" edge="1">
          <mxGeometry width="50" height="50" relative="1" as="geometry">
            <mxPoint x="502" y="70" as="sourcePoint" />
            <mxPoint x="251" y="70" as="targetPoint" />
            <Array as="points">
              <mxPoint x="482" y="70" />
            </Array>
          </mxGeometry>
        </mxCell>
        <UserObject label="" lucidchartObjectId="DH0ec2yG3K-L" id="O1rDpLoGwMOp85sgSPhA-128">
          <mxCell style="html=1;jettySize=18;whiteSpace=wrap;fontSize=13;strokeColor=#3a414a;strokeOpacity=100;strokeWidth=1.5;rounded=1;arcSize=24;edgeStyle=orthogonalEdgeStyle;startArrow=none;endArrow=block;endFill=1;movable=1;resizable=1;rotatable=1;deletable=1;editable=1;connectable=1;" parent="3gJggRkjq9Gqlf8AvucY-22" edge="1">
            <mxGeometry width="100" height="100" relative="1" as="geometry">
              <Array as="points">
                <mxPoint x="222" />
              </Array>
              <mxPoint x="221" as="sourcePoint" />
              <mxPoint x="2" as="targetPoint" />
            </mxGeometry>
          </mxCell>
        </UserObject>
        <mxCell id="O1rDpLoGwMOp85sgSPhA-129" value="on or off" style="text;html=1;resizable=1;labelBackgroundColor=default;align=center;verticalAlign=middle;fontColor=#3a414a;fontSize=13;container=0;movable=1;rotatable=1;deletable=1;editable=1;connectable=1;" parent="O1rDpLoGwMOp85sgSPhA-128" vertex="1">
          <mxGeometry relative="1" as="geometry">
            <mxPoint as="offset" />
          </mxGeometry>
        </mxCell>
        <mxCell id="3gJggRkjq9Gqlf8AvucY-9" value="" style="endArrow=classic;html=1;rounded=0;fontFamily=Helvetica;fontSize=16;fontColor=default;movable=1;resizable=1;rotatable=1;deletable=1;editable=1;connectable=1;" edge="1" parent="3gJggRkjq9Gqlf8AvucY-22">
          <mxGeometry width="50" height="50" relative="1" as="geometry">
            <mxPoint x="262" y="20" as="sourcePoint" />
            <mxPoint x="492" y="20" as="targetPoint" />
          </mxGeometry>
        </mxCell>
        <mxCell id="3gJggRkjq9Gqlf8AvucY-11" value="" style="endArrow=classic;html=1;rounded=0;fontFamily=Helvetica;fontSize=16;fontColor=default;exitX=0.585;exitY=0.5;exitDx=0;exitDy=0;exitPerimeter=0;movable=1;resizable=1;rotatable=1;deletable=1;editable=1;connectable=1;" edge="1" parent="3gJggRkjq9Gqlf8AvucY-22">
          <mxGeometry width="50" height="50" relative="1" as="geometry">
            <mxPoint x="770.6700000000001" y="70" as="sourcePoint" />
            <mxPoint x="512" y="70" as="targetPoint" />
          </mxGeometry>
        </mxCell>
        <mxCell id="O1rDpLoGwMOp85sgSPhA-232" value="" style="endArrow=classic;html=1;rounded=0;movable=1;resizable=1;rotatable=1;deletable=1;editable=1;connectable=1;" parent="3gJggRkjq9Gqlf8AvucY-22" edge="1">
          <mxGeometry width="50" height="50" relative="1" as="geometry">
            <mxPoint x="257" y="130" as="sourcePoint" />
            <mxPoint x="487" y="130" as="targetPoint" />
            <Array as="points">
              <mxPoint x="297" y="130" />
              <mxPoint x="407" y="130" />
            </Array>
          </mxGeometry>
        </mxCell>
        <mxCell id="O1rDpLoGwMOp85sgSPhA-233" value="" style="endArrow=classic;html=1;rounded=0;movable=1;resizable=1;rotatable=1;deletable=1;editable=1;connectable=1;" parent="3gJggRkjq9Gqlf8AvucY-22" edge="1">
          <mxGeometry width="50" height="50" relative="1" as="geometry">
            <mxPoint x="522" y="132" as="sourcePoint" />
            <mxPoint x="752" y="132" as="targetPoint" />
            <Array as="points" />
          </mxGeometry>
        </mxCell>
        <mxCell id="O1rDpLoGwMOp85sgSPhA-234" value="" style="endArrow=classic;html=1;rounded=0;movable=1;resizable=1;rotatable=1;deletable=1;editable=1;connectable=1;" parent="3gJggRkjq9Gqlf8AvucY-22" edge="1">
          <mxGeometry width="50" height="50" relative="1" as="geometry">
            <mxPoint x="772" y="141" as="sourcePoint" />
            <mxPoint x="512" y="141" as="targetPoint" />
          </mxGeometry>
        </mxCell>
        <mxCell id="O1rDpLoGwMOp85sgSPhA-235" value="" style="endArrow=classic;html=1;rounded=0;movable=1;resizable=1;rotatable=1;deletable=1;editable=1;connectable=1;" parent="3gJggRkjq9Gqlf8AvucY-22" edge="1">
          <mxGeometry width="50" height="50" relative="1" as="geometry">
            <mxPoint x="492" y="141" as="sourcePoint" />
            <mxPoint x="252" y="141" as="targetPoint" />
            <Array as="points" />
          </mxGeometry>
        </mxCell>
        <UserObject label="online" lucidchartObjectId="Mg0eFWkmtDXO" id="3gJggRkjq9Gqlf8AvucY-23">
          <mxCell style="html=1;blockSpacing=1;whiteSpace=wrap;shape=mxgraph.sysml.package2;xSize=90;overflow=fill;fontSize=16;fontColor=default;align=left;spacing=0;strokeColor=#3a414a;strokeOpacity=100;fillOpacity=100;rounded=1;absoluteArcSize=1;arcSize=12;fillColor=#ffffff;strokeWidth=1.5;movable=1;resizable=1;rotatable=1;deletable=1;editable=1;connectable=1;" vertex="1" parent="1">
            <mxGeometry x="180" y="1070" width="1500" height="130" as="geometry" />
          </mxCell>
        </UserObject>
        <mxCell id="3gJggRkjq9Gqlf8AvucY-26" value="" style="curved=1;endArrow=classic;html=1;rounded=0;fontFamily=Helvetica;fontSize=16;fontColor=default;" edge="1" parent="1" target="3gJggRkjq9Gqlf8AvucY-23">
          <mxGeometry width="50" height="50" relative="1" as="geometry">
            <mxPoint x="280" y="890" as="sourcePoint" />
            <mxPoint x="960" y="1200" as="targetPoint" />
            <Array as="points">
              <mxPoint x="60" y="960" />
              <mxPoint x="50" y="1130" />
            </Array>
          </mxGeometry>
        </mxCell>
        <mxCell id="3gJggRkjq9Gqlf8AvucY-30" value="" style="endArrow=classic;html=1;rounded=0;fontFamily=Helvetica;fontSize=16;fontColor=default;" edge="1" parent="1">
          <mxGeometry width="50" height="50" relative="1" as="geometry">
            <mxPoint x="810" y="1130" as="sourcePoint" />
            <mxPoint x="540" y="1130" as="targetPoint" />
            <Array as="points">
              <mxPoint x="660" y="1130" />
            </Array>
          </mxGeometry>
        </mxCell>
        <mxCell id="3gJggRkjq9Gqlf8AvucY-31" value="video" style="edgeLabel;html=1;align=center;verticalAlign=middle;resizable=0;points=[];fontSize=16;fontFamily=Helvetica;fontColor=default;" vertex="1" connectable="0" parent="3gJggRkjq9Gqlf8AvucY-30">
          <mxGeometry x="0.2935" y="7" relative="1" as="geometry">
            <mxPoint x="18" y="-17" as="offset" />
          </mxGeometry>
        </mxCell>
        <mxCell id="3gJggRkjq9Gqlf8AvucY-32" value="" style="endArrow=none;dashed=1;html=1;dashPattern=1 3;strokeWidth=2;rounded=0;fontFamily=Helvetica;fontSize=16;fontColor=default;exitX=0.001;exitY=0.892;exitDx=0;exitDy=0;exitPerimeter=0;entryX=1.003;entryY=0.85;entryDx=0;entryDy=0;entryPerimeter=0;" edge="1" parent="1" source="3gJggRkjq9Gqlf8AvucY-23" target="3gJggRkjq9Gqlf8AvucY-23">
          <mxGeometry width="50" height="50" relative="1" as="geometry">
            <mxPoint x="910" y="1140" as="sourcePoint" />
            <mxPoint x="960" y="1090" as="targetPoint" />
            <Array as="points">
              <mxPoint x="840" y="1181" />
            </Array>
          </mxGeometry>
        </mxCell>
        <mxCell id="3gJggRkjq9Gqlf8AvucY-33" value="offline" style="edgeLabel;html=1;align=center;verticalAlign=middle;resizable=0;points=[];fontSize=16;fontFamily=Helvetica;fontColor=default;" vertex="1" connectable="0" parent="3gJggRkjq9Gqlf8AvucY-32">
          <mxGeometry x="-0.9549" y="-7" relative="1" as="geometry">
            <mxPoint x="-15" y="7" as="offset" />
          </mxGeometry>
        </mxCell>
        <mxCell id="3gJggRkjq9Gqlf8AvucY-35" value="" style="endArrow=classic;html=1;rounded=0;fontFamily=Helvetica;fontSize=16;fontColor=default;" edge="1" parent="1">
          <mxGeometry width="50" height="50" relative="1" as="geometry">
            <mxPoint x="540" y="1170" as="sourcePoint" />
            <mxPoint x="780" y="1170" as="targetPoint" />
          </mxGeometry>
        </mxCell>
        <mxCell id="3gJggRkjq9Gqlf8AvucY-36" value="end" style="edgeLabel;html=1;align=center;verticalAlign=middle;resizable=0;points=[];fontSize=16;fontFamily=Helvetica;fontColor=default;" vertex="1" connectable="0" parent="3gJggRkjq9Gqlf8AvucY-35">
          <mxGeometry x="-0.1725" y="-7" relative="1" as="geometry">
            <mxPoint x="-1" as="offset" />
          </mxGeometry>
        </mxCell>
        <mxCell id="3gJggRkjq9Gqlf8AvucY-51" value="" style="endArrow=classic;html=1;rounded=0;fontFamily=Helvetica;fontSize=16;fontColor=default;" edge="1" parent="1">
          <mxGeometry width="50" height="50" relative="1" as="geometry">
            <mxPoint x="800" y="1220" as="sourcePoint" />
            <mxPoint x="1040" y="1220" as="targetPoint" />
          </mxGeometry>
        </mxCell>
        <mxCell id="3gJggRkjq9Gqlf8AvucY-52" value="" style="endArrow=classic;html=1;rounded=0;fontFamily=Helvetica;fontSize=16;fontColor=default;entryX=-0.031;entryY=0.817;entryDx=0;entryDy=0;entryPerimeter=0;" edge="1" parent="1" target="O1rDpLoGwMOp85sgSPhA-231">
          <mxGeometry width="50" height="50" relative="1" as="geometry">
            <mxPoint x="550" y="1228" as="sourcePoint" />
            <mxPoint x="960" y="1300" as="targetPoint" />
          </mxGeometry>
        </mxCell>
        <mxCell id="3gJggRkjq9Gqlf8AvucY-53" value="all data" style="edgeLabel;html=1;align=center;verticalAlign=middle;resizable=0;points=[];fontSize=16;fontFamily=Helvetica;fontColor=default;" vertex="1" connectable="0" parent="3gJggRkjq9Gqlf8AvucY-52">
          <mxGeometry x="-0.2011" y="8" relative="1" as="geometry">
            <mxPoint x="-1" as="offset" />
          </mxGeometry>
        </mxCell>
        <mxCell id="3gJggRkjq9Gqlf8AvucY-54" value="" style="endArrow=classic;html=1;rounded=0;fontFamily=Helvetica;fontSize=16;fontColor=default;" edge="1" parent="1">
          <mxGeometry width="50" height="50" relative="1" as="geometry">
            <mxPoint x="1040" y="1250" as="sourcePoint" />
            <mxPoint x="800" y="1250" as="targetPoint" />
          </mxGeometry>
        </mxCell>
        <mxCell id="3gJggRkjq9Gqlf8AvucY-55" value="" style="endArrow=classic;html=1;rounded=0;fontFamily=Helvetica;fontSize=16;fontColor=default;exitX=-0.092;exitY=0.877;exitDx=0;exitDy=0;exitPerimeter=0;" edge="1" parent="1" source="O1rDpLoGwMOp85sgSPhA-231">
          <mxGeometry width="50" height="50" relative="1" as="geometry">
            <mxPoint x="750" y="1290" as="sourcePoint" />
            <mxPoint x="560" y="1260" as="targetPoint" />
          </mxGeometry>
        </mxCell>
        <mxCell id="3gJggRkjq9Gqlf8AvucY-27" value="" style="endArrow=classic;html=1;rounded=0;fontFamily=Helvetica;fontSize=16;fontColor=default;" edge="1" parent="1">
          <mxGeometry width="50" height="50" relative="1" as="geometry">
            <mxPoint x="800" y="1120" as="sourcePoint" />
            <mxPoint x="1610" y="1120" as="targetPoint" />
            <Array as="points" />
          </mxGeometry>
        </mxCell>
        <mxCell id="3gJggRkjq9Gqlf8AvucY-28" value="access camera" style="edgeLabel;html=1;align=center;verticalAlign=middle;resizable=0;points=[];fontSize=16;fontFamily=Helvetica;fontColor=default;container=0;" vertex="1" connectable="0" parent="3gJggRkjq9Gqlf8AvucY-27">
          <mxGeometry x="0.1564" y="-7" relative="1" as="geometry">
            <mxPoint x="2" y="-23" as="offset" />
          </mxGeometry>
        </mxCell>
        <mxCell id="3gJggRkjq9Gqlf8AvucY-29" value="" style="endArrow=classic;html=1;rounded=0;fontFamily=Helvetica;fontSize=16;fontColor=default;entryX=0.413;entryY=0.538;entryDx=0;entryDy=0;entryPerimeter=0;" edge="1" parent="1" target="3gJggRkjq9Gqlf8AvucY-23">
          <mxGeometry width="50" height="50" relative="1" as="geometry">
            <mxPoint x="1600" y="1140" as="sourcePoint" />
            <mxPoint x="960" y="1100" as="targetPoint" />
          </mxGeometry>
        </mxCell>
        <mxCell id="3gJggRkjq9Gqlf8AvucY-43" value="" style="endArrow=classic;html=1;rounded=0;fontFamily=Helvetica;fontSize=16;fontColor=default;" edge="1" parent="1">
          <mxGeometry width="50" height="50" relative="1" as="geometry">
            <mxPoint x="800" y="1150" as="sourcePoint" />
            <mxPoint x="1610" y="1150" as="targetPoint" />
            <Array as="points" />
          </mxGeometry>
        </mxCell>
        <mxCell id="3gJggRkjq9Gqlf8AvucY-44" value="access camera" style="edgeLabel;html=1;align=center;verticalAlign=middle;resizable=0;points=[];fontSize=16;fontFamily=Helvetica;fontColor=default;container=0;" vertex="1" connectable="0" parent="3gJggRkjq9Gqlf8AvucY-43">
          <mxGeometry x="0.1564" y="-7" relative="1" as="geometry">
            <mxPoint x="2" y="-7" as="offset" />
          </mxGeometry>
        </mxCell>
        <mxCell id="3gJggRkjq9Gqlf8AvucY-47" value="" style="group;dropTarget=0;pointerEvents=0;" vertex="1" parent="1">
          <mxGeometry x="1050" y="900" width="30" height="500" as="geometry" />
        </mxCell>
        <UserObject label="" lucidchartObjectId="yl1eDsTMXpNo" id="3gJggRkjq9Gqlf8AvucY-48">
          <mxCell style="html=1;overflow=block;blockSpacing=1;whiteSpace=wrap;fontSize=13;spacing=0;strokeColor=#f2f2f2;strokeOpacity=100;fillOpacity=100;rounded=1;absoluteArcSize=1;arcSize=12;fillColor=#ced4db;strokeWidth=0.8;" vertex="1" parent="3gJggRkjq9Gqlf8AvucY-47">
            <mxGeometry y="47.34883872829441" width="30" height="317.01368418943895" as="geometry" />
          </mxCell>
        </UserObject>
        <UserObject label="" lucidchartObjectId="yl1ey6jIs6Oy" id="3gJggRkjq9Gqlf8AvucY-49">
          <mxCell style="html=1;jettySize=18;whiteSpace=wrap;fontSize=13;fontFamily=helvetica;strokeColor=#333333;strokeOpacity=100;dashed=1;fixDash=1;dashPattern=16 6;strokeWidth=0.8;rounded=1;arcSize=24;edgeStyle=orthogonalEdgeStyle;startArrow=none;endArrow=none;movable=1;resizable=1;rotatable=1;deletable=1;editable=1;connectable=1;" edge="1" parent="3gJggRkjq9Gqlf8AvucY-47">
            <mxGeometry width="100" height="100" relative="1" as="geometry">
              <Array as="points" />
              <mxPoint x="15" y="0.20321390012143523" as="sourcePoint" />
              <mxPoint x="15" y="370" as="targetPoint" />
            </mxGeometry>
          </mxCell>
        </UserObject>
        <UserObject label="reservation" lucidchartObjectId="Mg0eFWkmtDXO" id="O1rDpLoGwMOp85sgSPhA-108">
          <mxCell style="html=1;blockSpacing=1;whiteSpace=wrap;shape=mxgraph.sysml.package2;xSize=90;overflow=fill;fontSize=16;fontColor=default;align=left;spacing=0;strokeColor=#3a414a;strokeOpacity=100;fillOpacity=100;rounded=1;absoluteArcSize=1;arcSize=12;fillColor=#ffffff;strokeWidth=1.5;movable=1;resizable=1;rotatable=1;deletable=1;editable=1;connectable=1;" parent="1" vertex="1">
            <mxGeometry x="180" y="560" width="1500" height="320" as="geometry" />
          </mxCell>
        </UserObject>
      </root>
    </mxGraphModel>
  </diagram>
  <diagram id="waN_duzEnxqPo_ee-Lf5" name="Page-2">
    <mxGraphModel dx="1992" dy="916" grid="1" gridSize="10" guides="1" tooltips="1" connect="1" arrows="1" fold="1" page="1" pageScale="1" pageWidth="850" pageHeight="1100" math="0" shadow="0">
      <root>
        <mxCell id="0" />
        <mxCell id="1" parent="0" />
        <mxCell id="wQslVm1ULGF6RvHXzmoV-1" value="ui" style="html=1;overflow=block;blockSpacing=1;whiteSpace=wrap;fontSize=13.3;fontColor=#333333;fontStyle=6;align=center;spacing=0;strokeOpacity=0;fillOpacity=100;rounded=1;absoluteArcSize=1;arcSize=12;fillColor=#ffaf28;strokeWidth=0.8;" vertex="1" parent="1">
          <mxGeometry x="375" y="140" width="143" height="90" as="geometry" />
        </mxCell>
        <mxCell id="wQslVm1ULGF6RvHXzmoV-2" value="backend" style="html=1;overflow=block;blockSpacing=1;whiteSpace=wrap;fontSize=13.3;fontColor=#333333;fontStyle=6;align=center;spacing=0;strokeOpacity=0;fillOpacity=100;rounded=1;absoluteArcSize=1;arcSize=12;fillColor=#ffcc78;strokeWidth=0.8;" vertex="1" parent="1">
          <mxGeometry x="645" y="140" width="143" height="90" as="geometry" />
        </mxCell>
        <mxCell id="wQslVm1ULGF6RvHXzmoV-3" value="data base" style="html=1;overflow=block;blockSpacing=1;whiteSpace=wrap;fontSize=13.3;fontColor=#333333;fontStyle=6;align=center;spacing=0;strokeOpacity=0;fillOpacity=100;rounded=1;absoluteArcSize=1;arcSize=12;fillColor=#ffe6be;strokeWidth=0.8;" vertex="1" parent="1">
          <mxGeometry x="916" y="140" width="143" height="90" as="geometry" />
        </mxCell>
        <UserObject label="nurse" lucidchartObjectId="Yu5MdgyV5tNR" id="wQslVm1ULGF6RvHXzmoV-4">
          <mxCell style="html=1;overflow=block;blockSpacing=1;shape=umlActor;labelPosition=center;verticalLabelPosition=bottom;verticalAlign=top;whiteSpace=nowrap;fontSize=13.3;fontColor=#333333;fontStyle=2;align=center;spacing=0;strokeColor=#333333;strokeOpacity=100;fillOpacity=100;rounded=1;absoluteArcSize=1;arcSize=12;fillColor=#ffffff;strokeWidth=0.8;" vertex="1" parent="1">
            <mxGeometry x="180" y="168" width="60" height="132" as="geometry" />
          </mxCell>
        </UserObject>
        <mxCell id="wQslVm1ULGF6RvHXzmoV-5" value="" style="html=1;overflow=block;blockSpacing=1;swimlane;childLayout=stackLayout;horizontal=1;horizontalStack=0;resizeParent=1;resizeParentMax=0;resizeLast=0;collapsible=0;fontStyle=0;marginBottom=0;swimlaneFillColor=#ffcc78;startSize=25;whiteSpace=wrap;fontSize=13;align=center;spacing=0;strokeOpacity=0;fillOpacity=100;rounded=1;absoluteArcSize=1;arcSize=12;fillColor=#ffcc78;strokeWidth=0.8;" vertex="1" parent="1">
          <mxGeometry x="1187" y="140" width="150" height="75" as="geometry" />
        </mxCell>
        <mxCell id="wQslVm1ULGF6RvHXzmoV-6" value="machine" style="part=1;html=1;resizeHeight=0;strokeColor=none;fillColor=none;verticalAlign=middle;spacingLeft=4;spacingRight=4;overflow=hidden;rotatable=0;points=[[0,0.5],[1,0.5]];portConstraint=eastwest;swimlaneFillColor=#ffcc78;strokeOpacity=0;fillOpacity=100;whiteSpace=wrap;fontSize=13;fontColor=#3a414a;align=center;" vertex="1" parent="wQslVm1ULGF6RvHXzmoV-5">
          <mxGeometry y="25" width="150" height="30" as="geometry" />
        </mxCell>
        <mxCell id="wQslVm1ULGF6RvHXzmoV-7" value="" style="line;strokeWidth=1;fillColor=none;align=left;verticalAlign=middle;spacingTop=-1;spacingLeft=3;spacingRight=3;rotatable=0;labelPosition=right;points=[];portConstraint=eastwest;" vertex="1" parent="wQslVm1ULGF6RvHXzmoV-5">
          <mxGeometry y="55" width="150" height="8" as="geometry" />
        </mxCell>
        <mxCell id="wQslVm1ULGF6RvHXzmoV-8" value="" style="part=1;html=1;resizeHeight=0;strokeColor=none;fillColor=none;verticalAlign=middle;spacingLeft=4;spacingRight=4;overflow=hidden;rotatable=0;points=[[0,0.5],[1,0.5]];portConstraint=eastwest;swimlaneFillColor=#ffcc78;strokeOpacity=0;fillOpacity=100;whiteSpace=wrap;fontSize=13;align=center;" vertex="1" parent="wQslVm1ULGF6RvHXzmoV-5">
          <mxGeometry y="63" width="150" height="12" as="geometry" />
        </mxCell>
        <mxCell id="wQslVm1ULGF6RvHXzmoV-20" value="" style="html=1;overflow=block;blockSpacing=1;swimlane;childLayout=stackLayout;horizontal=1;horizontalStack=0;resizeParent=1;resizeParentMax=0;resizeLast=0;collapsible=0;fontStyle=0;marginBottom=0;swimlaneFillColor=#ffaf28;startSize=25;whiteSpace=wrap;fontSize=13;align=center;spacing=0;strokeOpacity=0;fillOpacity=100;rounded=1;absoluteArcSize=1;arcSize=12;fillColor=#ffaf28;strokeWidth=0.8;" vertex="1" parent="1">
          <mxGeometry x="1465" y="140" width="150" height="75" as="geometry" />
        </mxCell>
        <mxCell id="wQslVm1ULGF6RvHXzmoV-21" value="robot" style="part=1;html=1;resizeHeight=0;strokeColor=none;fillColor=none;verticalAlign=middle;spacingLeft=4;spacingRight=4;overflow=hidden;rotatable=0;points=[[0,0.5],[1,0.5]];portConstraint=eastwest;swimlaneFillColor=#ffaf28;strokeOpacity=0;fillOpacity=100;whiteSpace=wrap;fontSize=13;fontColor=#3a414a;align=center;" vertex="1" parent="wQslVm1ULGF6RvHXzmoV-20">
          <mxGeometry y="25" width="150" height="30" as="geometry" />
        </mxCell>
        <mxCell id="wQslVm1ULGF6RvHXzmoV-22" value="" style="line;strokeWidth=1;fillColor=none;align=left;verticalAlign=middle;spacingTop=-1;spacingLeft=3;spacingRight=3;rotatable=0;labelPosition=right;points=[];portConstraint=eastwest;" vertex="1" parent="wQslVm1ULGF6RvHXzmoV-20">
          <mxGeometry y="55" width="150" height="8" as="geometry" />
        </mxCell>
        <mxCell id="wQslVm1ULGF6RvHXzmoV-23" value="" style="part=1;html=1;resizeHeight=0;strokeColor=none;fillColor=none;verticalAlign=middle;spacingLeft=4;spacingRight=4;overflow=hidden;rotatable=0;points=[[0,0.5],[1,0.5]];portConstraint=eastwest;swimlaneFillColor=#ffaf28;strokeOpacity=0;fillOpacity=100;whiteSpace=wrap;fontSize=13;align=center;" vertex="1" parent="wQslVm1ULGF6RvHXzmoV-20">
          <mxGeometry y="63" width="150" height="12" as="geometry" />
        </mxCell>
        <mxCell id="xJJ3n_MqGSUQ8S4nkXyL-5" value="" style="group" vertex="1" connectable="0" parent="1">
          <mxGeometry x="431.5" y="250" width="30" height="1393.6363525390625" as="geometry" />
        </mxCell>
        <UserObject label="" lucidchartObjectId="Yu5MhR-oMSno" id="WGoWm73iEgCWXtnO77gf-1">
          <mxCell style="html=1;overflow=block;blockSpacing=1;whiteSpace=wrap;fontSize=13;spacing=0;strokeColor=#f2f2f2;strokeOpacity=100;fillOpacity=100;rounded=1;absoluteArcSize=1;arcSize=0;fillColor=#ced4db;strokeWidth=0.8;" vertex="1" parent="xJJ3n_MqGSUQ8S4nkXyL-5">
            <mxGeometry y="60" width="30" height="993" as="geometry" />
          </mxCell>
        </UserObject>
        <UserObject label="" lucidchartObjectId="Yu5M4GIAFP0a" id="xJJ3n_MqGSUQ8S4nkXyL-1">
          <mxCell style="html=1;jettySize=18;whiteSpace=wrap;fontSize=13;fontFamily=helvetica;strokeColor=#333333;strokeOpacity=100;dashed=1;fixDash=1;dashPattern=16 6;strokeWidth=0.8;rounded=0;startArrow=none;endArrow=none;exitX=0.5;exitY=1;exitPerimeter=0;" edge="1" parent="xJJ3n_MqGSUQ8S4nkXyL-5">
            <mxGeometry width="100" height="100" relative="1" as="geometry">
              <Array as="points" />
              <mxPoint x="14.5" y="1393.6363525390625" as="targetPoint" />
              <mxPoint x="14.5" as="sourcePoint" />
            </mxGeometry>
          </mxCell>
        </UserObject>
        <mxCell id="xJJ3n_MqGSUQ8S4nkXyL-6" value="" style="group" vertex="1" connectable="0" parent="1">
          <mxGeometry x="701.5" y="250" width="30" height="1393.6363525390625" as="geometry" />
        </mxCell>
        <UserObject label="" lucidchartObjectId="Yu5MhR-oMSno" id="xJJ3n_MqGSUQ8S4nkXyL-7">
          <mxCell style="html=1;overflow=block;blockSpacing=1;whiteSpace=wrap;fontSize=13;spacing=0;strokeColor=#f2f2f2;strokeOpacity=100;fillOpacity=100;rounded=1;absoluteArcSize=1;arcSize=0;fillColor=#ced4db;strokeWidth=0.8;" vertex="1" parent="xJJ3n_MqGSUQ8S4nkXyL-6">
            <mxGeometry y="60" width="30" height="993" as="geometry" />
          </mxCell>
        </UserObject>
        <UserObject label="" lucidchartObjectId="Yu5M4GIAFP0a" id="xJJ3n_MqGSUQ8S4nkXyL-8">
          <mxCell style="html=1;jettySize=18;whiteSpace=wrap;fontSize=13;fontFamily=helvetica;strokeColor=#333333;strokeOpacity=100;dashed=1;fixDash=1;dashPattern=16 6;strokeWidth=0.8;rounded=0;startArrow=none;endArrow=none;exitX=0.5;exitY=1;exitPerimeter=0;" edge="1" parent="xJJ3n_MqGSUQ8S4nkXyL-6">
            <mxGeometry width="100" height="100" relative="1" as="geometry">
              <Array as="points" />
              <mxPoint x="14.5" y="1393.6363525390625" as="targetPoint" />
              <mxPoint x="14.5" as="sourcePoint" />
            </mxGeometry>
          </mxCell>
        </UserObject>
        <mxCell id="xJJ3n_MqGSUQ8S4nkXyL-9" value="" style="group" vertex="1" connectable="0" parent="1">
          <mxGeometry x="972.5" y="250" width="30" height="1393.6363525390625" as="geometry" />
        </mxCell>
        <UserObject label="" lucidchartObjectId="Yu5MhR-oMSno" id="xJJ3n_MqGSUQ8S4nkXyL-10">
          <mxCell style="html=1;overflow=block;blockSpacing=1;whiteSpace=wrap;fontSize=13;spacing=0;strokeColor=#f2f2f2;strokeOpacity=100;fillOpacity=100;rounded=1;absoluteArcSize=1;arcSize=0;fillColor=#ced4db;strokeWidth=0.8;" vertex="1" parent="xJJ3n_MqGSUQ8S4nkXyL-9">
            <mxGeometry y="60" width="30" height="993" as="geometry" />
          </mxCell>
        </UserObject>
        <UserObject label="" lucidchartObjectId="Yu5M4GIAFP0a" id="xJJ3n_MqGSUQ8S4nkXyL-11">
          <mxCell style="html=1;jettySize=18;whiteSpace=wrap;fontSize=13;fontFamily=helvetica;strokeColor=#333333;strokeOpacity=100;dashed=1;fixDash=1;dashPattern=16 6;strokeWidth=0.8;rounded=0;startArrow=none;endArrow=none;exitX=0.5;exitY=1;exitPerimeter=0;" edge="1" parent="xJJ3n_MqGSUQ8S4nkXyL-9">
            <mxGeometry width="100" height="100" relative="1" as="geometry">
              <Array as="points" />
              <mxPoint x="14.5" y="1393.6363525390625" as="targetPoint" />
              <mxPoint x="14.5" as="sourcePoint" />
            </mxGeometry>
          </mxCell>
        </UserObject>
        <mxCell id="xJJ3n_MqGSUQ8S4nkXyL-12" value="" style="group" vertex="1" connectable="0" parent="1">
          <mxGeometry x="1245" y="240" width="30" height="1393.6363525390625" as="geometry" />
        </mxCell>
        <UserObject label="" lucidchartObjectId="Yu5MhR-oMSno" id="xJJ3n_MqGSUQ8S4nkXyL-13">
          <mxCell style="html=1;overflow=block;blockSpacing=1;whiteSpace=wrap;fontSize=13;spacing=0;strokeColor=#f2f2f2;strokeOpacity=100;fillOpacity=100;rounded=1;absoluteArcSize=1;arcSize=0;fillColor=#ced4db;strokeWidth=0.8;" vertex="1" parent="xJJ3n_MqGSUQ8S4nkXyL-12">
            <mxGeometry y="60" width="30" height="993" as="geometry" />
          </mxCell>
        </UserObject>
        <UserObject label="" lucidchartObjectId="Yu5M4GIAFP0a" id="xJJ3n_MqGSUQ8S4nkXyL-14">
          <mxCell style="html=1;jettySize=18;whiteSpace=wrap;fontSize=13;fontFamily=helvetica;strokeColor=#333333;strokeOpacity=100;dashed=1;fixDash=1;dashPattern=16 6;strokeWidth=0.8;rounded=0;startArrow=none;endArrow=none;exitX=0.5;exitY=1;exitPerimeter=0;" edge="1" parent="xJJ3n_MqGSUQ8S4nkXyL-12">
            <mxGeometry width="100" height="100" relative="1" as="geometry">
              <Array as="points" />
              <mxPoint x="14.5" y="1393.6363525390625" as="targetPoint" />
              <mxPoint x="14.5" as="sourcePoint" />
            </mxGeometry>
          </mxCell>
        </UserObject>
        <mxCell id="xJJ3n_MqGSUQ8S4nkXyL-15" value="" style="group" vertex="1" connectable="0" parent="1">
          <mxGeometry x="1540" y="250" width="30" height="1393.6363525390625" as="geometry" />
        </mxCell>
        <UserObject label="" lucidchartObjectId="Yu5MhR-oMSno" id="xJJ3n_MqGSUQ8S4nkXyL-16">
          <mxCell style="html=1;overflow=block;blockSpacing=1;whiteSpace=wrap;fontSize=13;spacing=0;strokeColor=#f2f2f2;strokeOpacity=100;fillOpacity=100;rounded=1;absoluteArcSize=1;arcSize=0;fillColor=#ced4db;strokeWidth=0.8;" vertex="1" parent="xJJ3n_MqGSUQ8S4nkXyL-15">
            <mxGeometry y="60" width="30" height="993" as="geometry" />
          </mxCell>
        </UserObject>
        <UserObject label="" lucidchartObjectId="Yu5M4GIAFP0a" id="xJJ3n_MqGSUQ8S4nkXyL-17">
          <mxCell style="html=1;jettySize=18;whiteSpace=wrap;fontSize=13;fontFamily=helvetica;strokeColor=#333333;strokeOpacity=100;dashed=1;fixDash=1;dashPattern=16 6;strokeWidth=0.8;rounded=0;startArrow=none;endArrow=none;exitX=0.5;exitY=1;exitPerimeter=0;" edge="1" parent="xJJ3n_MqGSUQ8S4nkXyL-15">
            <mxGeometry width="100" height="100" relative="1" as="geometry">
              <Array as="points" />
              <mxPoint x="14.5" y="1393.6363525390625" as="targetPoint" />
              <mxPoint x="14.5" as="sourcePoint" />
            </mxGeometry>
          </mxCell>
        </UserObject>
        <UserObject label="" lucidchartObjectId="C8Ze6TrC35Hq" id="CbsHUhUpenSRsetA0ZrU-1">
          <mxCell style="html=1;jettySize=18;whiteSpace=wrap;fontSize=13;strokeColor=#3a414a;strokeOpacity=100;strokeWidth=0.8;rounded=1;arcSize=24;edgeStyle=orthogonalEdgeStyle;startArrow=none;endArrow=none;" edge="1" parent="1">
            <mxGeometry width="100" height="100" relative="1" as="geometry">
              <Array as="points">
                <mxPoint x="214" y="1465" />
              </Array>
              <mxPoint x="206" y="1465" as="sourcePoint" />
              <mxPoint x="214" y="290" as="targetPoint" />
            </mxGeometry>
          </mxCell>
        </UserObject>
        <mxCell id="eFXSJV7UTXEUMrP7OYm6-1" value="" style="endArrow=classic;html=1;rounded=0;fontFamily=Helvetica;fontSize=16;fontColor=default;" edge="1" parent="1">
          <mxGeometry width="50" height="50" relative="1" as="geometry">
            <mxPoint x="430" y="340" as="sourcePoint" />
            <mxPoint x="200" y="340" as="targetPoint" />
          </mxGeometry>
        </mxCell>
        <mxCell id="eFXSJV7UTXEUMrP7OYm6-2" value="login" style="edgeLabel;html=1;align=center;verticalAlign=middle;resizable=0;points=[];fontSize=16;fontFamily=Helvetica;fontColor=default;" vertex="1" connectable="0" parent="eFXSJV7UTXEUMrP7OYm6-1">
          <mxGeometry x="0.4686" y="-3" relative="1" as="geometry">
            <mxPoint x="48" y="-7" as="offset" />
          </mxGeometry>
        </mxCell>
        <mxCell id="eFXSJV7UTXEUMrP7OYm6-3" value="" style="endArrow=classic;html=1;rounded=0;fontFamily=Helvetica;fontSize=16;fontColor=default;" edge="1" parent="1">
          <mxGeometry width="50" height="50" relative="1" as="geometry">
            <mxPoint x="210" y="370" as="sourcePoint" />
            <mxPoint x="430" y="370" as="targetPoint" />
          </mxGeometry>
        </mxCell>
        <mxCell id="eFXSJV7UTXEUMrP7OYm6-4" value="pass-id" style="edgeLabel;html=1;align=center;verticalAlign=middle;resizable=0;points=[];fontSize=16;fontFamily=Helvetica;fontColor=default;" vertex="1" connectable="0" parent="eFXSJV7UTXEUMrP7OYm6-3">
          <mxGeometry x="0.1556" y="7" relative="1" as="geometry">
            <mxPoint x="-28" y="-13" as="offset" />
          </mxGeometry>
        </mxCell>
        <mxCell id="eFXSJV7UTXEUMrP7OYm6-6" value="" style="endArrow=classic;html=1;rounded=0;fontFamily=Helvetica;fontSize=16;fontColor=default;" edge="1" parent="1">
          <mxGeometry width="50" height="50" relative="1" as="geometry">
            <mxPoint x="740" y="370" as="sourcePoint" />
            <mxPoint x="970" y="370" as="targetPoint" />
          </mxGeometry>
        </mxCell>
        <mxCell id="yphr-jTAqpthYidWDoCB-2" value="select" style="edgeLabel;html=1;align=center;verticalAlign=middle;resizable=0;points=[];fontSize=16;fontFamily=Helvetica;fontColor=default;" vertex="1" connectable="0" parent="eFXSJV7UTXEUMrP7OYm6-6">
          <mxGeometry x="-0.3816" y="-1" relative="1" as="geometry">
            <mxPoint x="-1" as="offset" />
          </mxGeometry>
        </mxCell>
        <mxCell id="eFXSJV7UTXEUMrP7OYm6-7" value="" style="endArrow=classic;html=1;rounded=0;fontFamily=Helvetica;fontSize=16;fontColor=default;exitX=0.081;exitY=0.102;exitDx=0;exitDy=0;exitPerimeter=0;entryX=1.296;entryY=0.104;entryDx=0;entryDy=0;entryPerimeter=0;" edge="1" parent="1" source="xJJ3n_MqGSUQ8S4nkXyL-10" target="xJJ3n_MqGSUQ8S4nkXyL-7">
          <mxGeometry width="50" height="50" relative="1" as="geometry">
            <mxPoint x="930" y="560" as="sourcePoint" />
            <mxPoint x="980" y="510" as="targetPoint" />
            <Array as="points">
              <mxPoint x="820" y="413" />
            </Array>
          </mxGeometry>
        </mxCell>
        <mxCell id="yphr-jTAqpthYidWDoCB-1" value="data" style="edgeLabel;html=1;align=center;verticalAlign=middle;resizable=0;points=[];fontSize=16;fontFamily=Helvetica;fontColor=default;" vertex="1" connectable="0" parent="eFXSJV7UTXEUMrP7OYm6-7">
          <mxGeometry x="0.0551" y="-7" relative="1" as="geometry">
            <mxPoint as="offset" />
          </mxGeometry>
        </mxCell>
        <mxCell id="yphr-jTAqpthYidWDoCB-3" value="" style="endArrow=classic;html=1;rounded=0;fontFamily=Helvetica;fontSize=16;fontColor=default;" edge="1" parent="1">
          <mxGeometry width="50" height="50" relative="1" as="geometry">
            <mxPoint x="440" y="420" as="sourcePoint" />
            <mxPoint x="210" y="420" as="targetPoint" />
            <Array as="points">
              <mxPoint x="310" y="420" />
            </Array>
          </mxGeometry>
        </mxCell>
        <mxCell id="yphr-jTAqpthYidWDoCB-4" value="queue of patient" style="edgeLabel;html=1;align=center;verticalAlign=middle;resizable=0;points=[];fontSize=16;fontFamily=Helvetica;fontColor=default;" vertex="1" connectable="0" parent="yphr-jTAqpthYidWDoCB-3">
          <mxGeometry x="0.3294" y="-5" relative="1" as="geometry">
            <mxPoint x="22" y="-5" as="offset" />
          </mxGeometry>
        </mxCell>
        <mxCell id="yphr-jTAqpthYidWDoCB-5" value="" style="endArrow=classic;html=1;rounded=0;fontFamily=Helvetica;fontSize=16;fontColor=default;entryX=-0.067;entryY=0.141;entryDx=0;entryDy=0;entryPerimeter=0;" edge="1" parent="1" target="WGoWm73iEgCWXtnO77gf-1">
          <mxGeometry width="50" height="50" relative="1" as="geometry">
            <mxPoint x="220" y="450" as="sourcePoint" />
            <mxPoint x="980" y="510" as="targetPoint" />
          </mxGeometry>
        </mxCell>
        <mxCell id="yphr-jTAqpthYidWDoCB-6" value="select" style="edgeLabel;html=1;align=center;verticalAlign=middle;resizable=0;points=[];fontSize=16;fontFamily=Helvetica;fontColor=default;" vertex="1" connectable="0" parent="yphr-jTAqpthYidWDoCB-5">
          <mxGeometry x="-0.2065" y="3" relative="1" as="geometry">
            <mxPoint x="-1" as="offset" />
          </mxGeometry>
        </mxCell>
        <mxCell id="yphr-jTAqpthYidWDoCB-7" value="" style="group" vertex="1" connectable="0" parent="1">
          <mxGeometry x="470" y="370" width="230" height="47" as="geometry" />
        </mxCell>
        <mxCell id="eFXSJV7UTXEUMrP7OYm6-5" value="" style="endArrow=classic;html=1;rounded=0;fontFamily=Helvetica;fontSize=16;fontColor=default;" edge="1" parent="yphr-jTAqpthYidWDoCB-7">
          <mxGeometry width="50" height="50" relative="1" as="geometry">
            <mxPoint as="sourcePoint" />
            <mxPoint x="230" as="targetPoint" />
          </mxGeometry>
        </mxCell>
        <mxCell id="eFXSJV7UTXEUMrP7OYm6-8" value="" style="endArrow=classic;html=1;rounded=0;fontFamily=Helvetica;fontSize=16;fontColor=default;exitX=-0.219;exitY=0.11;exitDx=0;exitDy=0;exitPerimeter=0;entryX=1.084;entryY=0.108;entryDx=0;entryDy=0;entryPerimeter=0;" edge="1" parent="yphr-jTAqpthYidWDoCB-7" source="xJJ3n_MqGSUQ8S4nkXyL-7" target="WGoWm73iEgCWXtnO77gf-1">
          <mxGeometry width="50" height="50" relative="1" as="geometry">
            <mxPoint x="460" y="190" as="sourcePoint" />
            <mxPoint x="510" y="140" as="targetPoint" />
            <Array as="points">
              <mxPoint x="120" y="47" />
            </Array>
          </mxGeometry>
        </mxCell>
        <mxCell id="yphr-jTAqpthYidWDoCB-14" value="" style="endArrow=classic;html=1;rounded=0;fontFamily=Helvetica;fontSize=16;fontColor=default;exitX=1.084;exitY=0.141;exitDx=0;exitDy=0;exitPerimeter=0;" edge="1" parent="1" source="WGoWm73iEgCWXtnO77gf-1">
          <mxGeometry width="50" height="50" relative="1" as="geometry">
            <mxPoint x="670" y="510" as="sourcePoint" />
            <mxPoint x="690" y="450" as="targetPoint" />
          </mxGeometry>
        </mxCell>
        <mxCell id="yphr-jTAqpthYidWDoCB-15" value="" style="endArrow=classic;html=1;rounded=0;fontFamily=Helvetica;fontSize=16;fontColor=default;" edge="1" parent="1">
          <mxGeometry width="50" height="50" relative="1" as="geometry">
            <mxPoint x="720" y="460" as="sourcePoint" />
            <mxPoint x="970" y="460" as="targetPoint" />
          </mxGeometry>
        </mxCell>
        <mxCell id="yphr-jTAqpthYidWDoCB-17" value="select" style="edgeLabel;html=1;align=center;verticalAlign=middle;resizable=0;points=[];fontSize=16;fontFamily=Helvetica;fontColor=default;" vertex="1" connectable="0" parent="yphr-jTAqpthYidWDoCB-15">
          <mxGeometry x="-0.2696" y="-6" relative="1" as="geometry">
            <mxPoint x="28" y="-16" as="offset" />
          </mxGeometry>
        </mxCell>
        <mxCell id="yphr-jTAqpthYidWDoCB-16" value="" style="endArrow=classic;html=1;rounded=0;fontFamily=Helvetica;fontSize=16;fontColor=default;" edge="1" parent="1">
          <mxGeometry width="50" height="50" relative="1" as="geometry">
            <mxPoint x="960" y="480" as="sourcePoint" />
            <mxPoint x="720" y="480" as="targetPoint" />
            <Array as="points">
              <mxPoint x="840" y="480" />
            </Array>
          </mxGeometry>
        </mxCell>
        <mxCell id="yphr-jTAqpthYidWDoCB-18" value="data" style="edgeLabel;html=1;align=center;verticalAlign=middle;resizable=0;points=[];fontSize=16;fontFamily=Helvetica;fontColor=default;" vertex="1" connectable="0" parent="yphr-jTAqpthYidWDoCB-16">
          <mxGeometry x="-0.2108" y="4" relative="1" as="geometry">
            <mxPoint x="-1" as="offset" />
          </mxGeometry>
        </mxCell>
        <mxCell id="yphr-jTAqpthYidWDoCB-19" value="" style="endArrow=classic;html=1;rounded=0;fontFamily=Helvetica;fontSize=16;fontColor=default;entryX=0.95;entryY=0.171;entryDx=0;entryDy=0;entryPerimeter=0;" edge="1" parent="1" target="WGoWm73iEgCWXtnO77gf-1">
          <mxGeometry width="50" height="50" relative="1" as="geometry">
            <mxPoint x="700" y="480" as="sourcePoint" />
            <mxPoint x="980" y="510" as="targetPoint" />
            <Array as="points" />
          </mxGeometry>
        </mxCell>
        <mxCell id="yphr-jTAqpthYidWDoCB-20" value="" style="endArrow=classic;html=1;rounded=0;fontFamily=Helvetica;fontSize=16;fontColor=default;exitX=0.054;exitY=0.181;exitDx=0;exitDy=0;exitPerimeter=0;" edge="1" parent="1" source="WGoWm73iEgCWXtnO77gf-1">
          <mxGeometry width="50" height="50" relative="1" as="geometry">
            <mxPoint x="930" y="560" as="sourcePoint" />
            <mxPoint x="220" y="490" as="targetPoint" />
          </mxGeometry>
        </mxCell>
        <mxCell id="yphr-jTAqpthYidWDoCB-21" value="table" style="edgeLabel;html=1;align=center;verticalAlign=middle;resizable=0;points=[];fontSize=16;fontFamily=Helvetica;fontColor=default;" vertex="1" connectable="0" parent="yphr-jTAqpthYidWDoCB-20">
          <mxGeometry x="0.1996" relative="1" as="geometry">
            <mxPoint x="15" y="-10" as="offset" />
          </mxGeometry>
        </mxCell>
        <mxCell id="yphr-jTAqpthYidWDoCB-22" value="" style="endArrow=classic;html=1;rounded=0;fontFamily=Helvetica;fontSize=16;fontColor=default;" edge="1" parent="1">
          <mxGeometry width="50" height="50" relative="1" as="geometry">
            <mxPoint x="220" y="510" as="sourcePoint" />
            <mxPoint x="440" y="510" as="targetPoint" />
          </mxGeometry>
        </mxCell>
        <mxCell id="yphr-jTAqpthYidWDoCB-23" value="update" style="edgeLabel;html=1;align=center;verticalAlign=middle;resizable=0;points=[];fontSize=16;fontFamily=Helvetica;fontColor=default;" vertex="1" connectable="0" parent="yphr-jTAqpthYidWDoCB-22">
          <mxGeometry x="-0.2246" y="-2" relative="1" as="geometry">
            <mxPoint x="14" y="8" as="offset" />
          </mxGeometry>
        </mxCell>
        <mxCell id="yphr-jTAqpthYidWDoCB-24" value="" style="endArrow=classic;html=1;rounded=0;fontFamily=Helvetica;fontSize=16;fontColor=default;entryX=-0.28;entryY=0.203;entryDx=0;entryDy=0;entryPerimeter=0;" edge="1" parent="1" target="xJJ3n_MqGSUQ8S4nkXyL-7">
          <mxGeometry width="50" height="50" relative="1" as="geometry">
            <mxPoint x="470" y="510" as="sourcePoint" />
            <mxPoint x="600" y="510" as="targetPoint" />
          </mxGeometry>
        </mxCell>
        <mxCell id="yphr-jTAqpthYidWDoCB-25" value="" style="endArrow=classic;html=1;rounded=0;fontFamily=Helvetica;fontSize=16;fontColor=default;" edge="1" parent="1">
          <mxGeometry width="50" height="50" relative="1" as="geometry">
            <mxPoint x="740" y="520" as="sourcePoint" />
            <mxPoint x="960" y="520" as="targetPoint" />
          </mxGeometry>
        </mxCell>
        <mxCell id="yphr-jTAqpthYidWDoCB-26" value="" style="endArrow=classic;html=1;rounded=0;fontFamily=Helvetica;fontSize=16;fontColor=default;" edge="1" parent="1">
          <mxGeometry width="50" height="50" relative="1" as="geometry">
            <mxPoint x="960" y="550" as="sourcePoint" />
            <mxPoint x="740" y="550" as="targetPoint" />
          </mxGeometry>
        </mxCell>
        <mxCell id="yphr-jTAqpthYidWDoCB-27" value="" style="endArrow=classic;html=1;rounded=0;fontFamily=Helvetica;fontSize=16;fontColor=default;exitX=0;exitY=0.25;exitDx=0;exitDy=0;" edge="1" parent="1" source="xJJ3n_MqGSUQ8S4nkXyL-7">
          <mxGeometry width="50" height="50" relative="1" as="geometry">
            <mxPoint x="490" y="630" as="sourcePoint" />
            <mxPoint x="460" y="560" as="targetPoint" />
          </mxGeometry>
        </mxCell>
        <mxCell id="yphr-jTAqpthYidWDoCB-28" value="" style="endArrow=classic;html=1;rounded=0;fontFamily=Helvetica;fontSize=16;fontColor=default;" edge="1" parent="1">
          <mxGeometry width="50" height="50" relative="1" as="geometry">
            <mxPoint x="420" y="570" as="sourcePoint" />
            <mxPoint x="220" y="570" as="targetPoint" />
          </mxGeometry>
        </mxCell>
        <mxCell id="yphr-jTAqpthYidWDoCB-29" value="done" style="text;html=1;align=center;verticalAlign=middle;resizable=0;points=[];autosize=1;strokeColor=none;fillColor=none;fontSize=16;fontFamily=Helvetica;fontColor=default;" vertex="1" parent="1">
          <mxGeometry x="280" y="575" width="60" height="30" as="geometry" />
        </mxCell>
      </root>
    </mxGraphModel>
  </diagram>
  <diagram id="w1TFkOS2YR6ttVq0S9nj" name="Page-3">
    <mxGraphModel dx="2842" dy="916" grid="1" gridSize="10" guides="1" tooltips="1" connect="1" arrows="1" fold="1" page="1" pageScale="1" pageWidth="850" pageHeight="1100" math="0" shadow="0">
      <root>
        <mxCell id="0" />
        <mxCell id="1" parent="0" />
        <mxCell id="09pZKukJyW_Rh8OtuDQN-1" value="ui" style="html=1;overflow=block;blockSpacing=1;whiteSpace=wrap;fontSize=13.3;fontColor=#333333;fontStyle=6;align=center;spacing=0;strokeOpacity=0;fillOpacity=100;rounded=1;absoluteArcSize=1;arcSize=12;fillColor=#ffaf28;strokeWidth=0.8;" vertex="1" parent="1">
          <mxGeometry x="305" y="100" width="143" height="90" as="geometry" />
        </mxCell>
        <mxCell id="09pZKukJyW_Rh8OtuDQN-2" value="backend" style="html=1;overflow=block;blockSpacing=1;whiteSpace=wrap;fontSize=13.3;fontColor=#333333;fontStyle=6;align=center;spacing=0;strokeOpacity=0;fillOpacity=100;rounded=1;absoluteArcSize=1;arcSize=12;fillColor=#ffcc78;strokeWidth=0.8;" vertex="1" parent="1">
          <mxGeometry x="575" y="100" width="143" height="90" as="geometry" />
        </mxCell>
        <mxCell id="09pZKukJyW_Rh8OtuDQN-3" value="data base" style="html=1;overflow=block;blockSpacing=1;whiteSpace=wrap;fontSize=13.3;fontColor=#333333;fontStyle=6;align=center;spacing=0;strokeOpacity=0;fillOpacity=100;rounded=1;absoluteArcSize=1;arcSize=12;fillColor=#ffe6be;strokeWidth=0.8;" vertex="1" parent="1">
          <mxGeometry x="846" y="100" width="143" height="90" as="geometry" />
        </mxCell>
        <UserObject label="doctor" lucidchartObjectId="Yu5MdgyV5tNR" id="09pZKukJyW_Rh8OtuDQN-4">
          <mxCell style="html=1;overflow=block;blockSpacing=1;shape=umlActor;labelPosition=center;verticalLabelPosition=bottom;verticalAlign=top;whiteSpace=nowrap;fontSize=13.3;fontColor=#333333;fontStyle=2;align=center;spacing=0;strokeColor=#333333;strokeOpacity=100;fillOpacity=100;rounded=1;absoluteArcSize=1;arcSize=12;fillColor=#ffffff;strokeWidth=0.8;" vertex="1" parent="1">
            <mxGeometry x="110" y="128" width="60" height="132" as="geometry" />
          </mxCell>
        </UserObject>
        <mxCell id="09pZKukJyW_Rh8OtuDQN-5" value="" style="html=1;overflow=block;blockSpacing=1;swimlane;childLayout=stackLayout;horizontal=1;horizontalStack=0;resizeParent=1;resizeParentMax=0;resizeLast=0;collapsible=0;fontStyle=0;marginBottom=0;swimlaneFillColor=#ffcc78;startSize=25;whiteSpace=wrap;fontSize=13;align=center;spacing=0;strokeOpacity=0;fillOpacity=100;rounded=1;absoluteArcSize=1;arcSize=12;fillColor=#ffcc78;strokeWidth=0.8;" vertex="1" parent="1">
          <mxGeometry x="1117" y="100" width="150" height="75" as="geometry" />
        </mxCell>
        <mxCell id="09pZKukJyW_Rh8OtuDQN-6" value="machine" style="part=1;html=1;resizeHeight=0;strokeColor=none;fillColor=none;verticalAlign=middle;spacingLeft=4;spacingRight=4;overflow=hidden;rotatable=0;points=[[0,0.5],[1,0.5]];portConstraint=eastwest;swimlaneFillColor=#ffcc78;strokeOpacity=0;fillOpacity=100;whiteSpace=wrap;fontSize=13;fontColor=#3a414a;align=center;" vertex="1" parent="09pZKukJyW_Rh8OtuDQN-5">
          <mxGeometry y="25" width="150" height="30" as="geometry" />
        </mxCell>
        <mxCell id="09pZKukJyW_Rh8OtuDQN-7" value="" style="line;strokeWidth=1;fillColor=none;align=left;verticalAlign=middle;spacingTop=-1;spacingLeft=3;spacingRight=3;rotatable=0;labelPosition=right;points=[];portConstraint=eastwest;" vertex="1" parent="09pZKukJyW_Rh8OtuDQN-5">
          <mxGeometry y="55" width="150" height="8" as="geometry" />
        </mxCell>
        <mxCell id="09pZKukJyW_Rh8OtuDQN-8" value="" style="part=1;html=1;resizeHeight=0;strokeColor=none;fillColor=none;verticalAlign=middle;spacingLeft=4;spacingRight=4;overflow=hidden;rotatable=0;points=[[0,0.5],[1,0.5]];portConstraint=eastwest;swimlaneFillColor=#ffcc78;strokeOpacity=0;fillOpacity=100;whiteSpace=wrap;fontSize=13;align=center;" vertex="1" parent="09pZKukJyW_Rh8OtuDQN-5">
          <mxGeometry y="63" width="150" height="12" as="geometry" />
        </mxCell>
        <mxCell id="09pZKukJyW_Rh8OtuDQN-9" value="" style="html=1;overflow=block;blockSpacing=1;swimlane;childLayout=stackLayout;horizontal=1;horizontalStack=0;resizeParent=1;resizeParentMax=0;resizeLast=0;collapsible=0;fontStyle=0;marginBottom=0;swimlaneFillColor=#ffaf28;startSize=25;whiteSpace=wrap;fontSize=13;align=center;spacing=0;strokeOpacity=0;fillOpacity=100;rounded=1;absoluteArcSize=1;arcSize=12;fillColor=#ffaf28;strokeWidth=0.8;" vertex="1" parent="1">
          <mxGeometry x="1395" y="100" width="150" height="75" as="geometry" />
        </mxCell>
        <mxCell id="09pZKukJyW_Rh8OtuDQN-10" value="robot" style="part=1;html=1;resizeHeight=0;strokeColor=none;fillColor=none;verticalAlign=middle;spacingLeft=4;spacingRight=4;overflow=hidden;rotatable=0;points=[[0,0.5],[1,0.5]];portConstraint=eastwest;swimlaneFillColor=#ffaf28;strokeOpacity=0;fillOpacity=100;whiteSpace=wrap;fontSize=13;fontColor=#3a414a;align=center;" vertex="1" parent="09pZKukJyW_Rh8OtuDQN-9">
          <mxGeometry y="25" width="150" height="30" as="geometry" />
        </mxCell>
        <mxCell id="09pZKukJyW_Rh8OtuDQN-11" value="" style="line;strokeWidth=1;fillColor=none;align=left;verticalAlign=middle;spacingTop=-1;spacingLeft=3;spacingRight=3;rotatable=0;labelPosition=right;points=[];portConstraint=eastwest;" vertex="1" parent="09pZKukJyW_Rh8OtuDQN-9">
          <mxGeometry y="55" width="150" height="8" as="geometry" />
        </mxCell>
        <mxCell id="09pZKukJyW_Rh8OtuDQN-12" value="" style="part=1;html=1;resizeHeight=0;strokeColor=none;fillColor=none;verticalAlign=middle;spacingLeft=4;spacingRight=4;overflow=hidden;rotatable=0;points=[[0,0.5],[1,0.5]];portConstraint=eastwest;swimlaneFillColor=#ffaf28;strokeOpacity=0;fillOpacity=100;whiteSpace=wrap;fontSize=13;align=center;" vertex="1" parent="09pZKukJyW_Rh8OtuDQN-9">
          <mxGeometry y="63" width="150" height="12" as="geometry" />
        </mxCell>
        <mxCell id="09pZKukJyW_Rh8OtuDQN-13" value="" style="endArrow=classic;html=1;rounded=0;fontFamily=Helvetica;fontSize=16;fontColor=default;" edge="1" parent="1">
          <mxGeometry width="50" height="50" relative="1" as="geometry">
            <mxPoint x="360" y="300" as="sourcePoint" />
            <mxPoint x="130" y="300" as="targetPoint" />
          </mxGeometry>
        </mxCell>
        <mxCell id="09pZKukJyW_Rh8OtuDQN-14" value="login" style="edgeLabel;html=1;align=center;verticalAlign=middle;resizable=0;points=[];fontSize=16;fontFamily=Helvetica;fontColor=default;" vertex="1" connectable="0" parent="09pZKukJyW_Rh8OtuDQN-13">
          <mxGeometry x="0.4686" y="-3" relative="1" as="geometry">
            <mxPoint x="48" y="-7" as="offset" />
          </mxGeometry>
        </mxCell>
        <mxCell id="09pZKukJyW_Rh8OtuDQN-15" value="pass-id" style="edgeLabel;html=1;align=center;verticalAlign=middle;resizable=0;points=[];fontSize=16;fontFamily=Helvetica;fontColor=default;" vertex="1" connectable="0" parent="1">
          <mxGeometry x="240" y="310" as="geometry">
            <mxPoint x="-2" y="24" as="offset" />
          </mxGeometry>
        </mxCell>
        <mxCell id="ZR0sNAejCj67LuoEHNH--1" value="" style="group" vertex="1" connectable="0" parent="1">
          <mxGeometry x="1455" y="175" width="30" height="1393.6363525390625" as="geometry" />
        </mxCell>
        <UserObject label="" lucidchartObjectId="Yu5MhR-oMSno" id="ZR0sNAejCj67LuoEHNH--2">
          <mxCell style="html=1;overflow=block;blockSpacing=1;whiteSpace=wrap;fontSize=13;spacing=0;strokeColor=#f2f2f2;strokeOpacity=100;fillOpacity=100;rounded=1;absoluteArcSize=1;arcSize=0;fillColor=#ced4db;strokeWidth=0.8;" vertex="1" parent="ZR0sNAejCj67LuoEHNH--1">
            <mxGeometry y="60" width="30" height="993" as="geometry" />
          </mxCell>
        </UserObject>
        <UserObject label="" lucidchartObjectId="Yu5M4GIAFP0a" id="ZR0sNAejCj67LuoEHNH--3">
          <mxCell style="html=1;jettySize=18;whiteSpace=wrap;fontSize=13;fontFamily=helvetica;strokeColor=#333333;strokeOpacity=100;dashed=1;fixDash=1;dashPattern=16 6;strokeWidth=0.8;rounded=0;startArrow=none;endArrow=none;exitX=0.5;exitY=1;exitPerimeter=0;" edge="1" parent="ZR0sNAejCj67LuoEHNH--1">
            <mxGeometry width="100" height="100" relative="1" as="geometry">
              <Array as="points" />
              <mxPoint x="14.5" y="1393.6363525390625" as="targetPoint" />
              <mxPoint x="14.5" as="sourcePoint" />
            </mxGeometry>
          </mxCell>
        </UserObject>
        <mxCell id="ZR0sNAejCj67LuoEHNH--4" value="" style="group" vertex="1" connectable="0" parent="1">
          <mxGeometry x="1177" y="175" width="30" height="1393.6363525390625" as="geometry" />
        </mxCell>
        <UserObject label="" lucidchartObjectId="Yu5MhR-oMSno" id="ZR0sNAejCj67LuoEHNH--5">
          <mxCell style="html=1;overflow=block;blockSpacing=1;whiteSpace=wrap;fontSize=13;spacing=0;strokeColor=#f2f2f2;strokeOpacity=100;fillOpacity=100;rounded=1;absoluteArcSize=1;arcSize=0;fillColor=#ced4db;strokeWidth=0.8;" vertex="1" parent="ZR0sNAejCj67LuoEHNH--4">
            <mxGeometry y="60" width="30" height="993" as="geometry" />
          </mxCell>
        </UserObject>
        <UserObject label="" lucidchartObjectId="Yu5M4GIAFP0a" id="ZR0sNAejCj67LuoEHNH--6">
          <mxCell style="html=1;jettySize=18;whiteSpace=wrap;fontSize=13;fontFamily=helvetica;strokeColor=#333333;strokeOpacity=100;dashed=1;fixDash=1;dashPattern=16 6;strokeWidth=0.8;rounded=0;startArrow=none;endArrow=none;exitX=0.5;exitY=1;exitPerimeter=0;" edge="1" parent="ZR0sNAejCj67LuoEHNH--4">
            <mxGeometry width="100" height="100" relative="1" as="geometry">
              <Array as="points" />
              <mxPoint x="14.5" y="1393.6363525390625" as="targetPoint" />
              <mxPoint x="14.5" as="sourcePoint" />
            </mxGeometry>
          </mxCell>
        </UserObject>
        <mxCell id="ZR0sNAejCj67LuoEHNH--7" value="" style="group" vertex="1" connectable="0" parent="1">
          <mxGeometry x="910" y="190" width="30" height="1393.6363525390625" as="geometry" />
        </mxCell>
        <UserObject label="" lucidchartObjectId="Yu5MhR-oMSno" id="ZR0sNAejCj67LuoEHNH--8">
          <mxCell style="html=1;overflow=block;blockSpacing=1;whiteSpace=wrap;fontSize=13;spacing=0;strokeColor=#f2f2f2;strokeOpacity=100;fillOpacity=100;rounded=1;absoluteArcSize=1;arcSize=0;fillColor=#ced4db;strokeWidth=0.8;" vertex="1" parent="ZR0sNAejCj67LuoEHNH--7">
            <mxGeometry y="60" width="30" height="993" as="geometry" />
          </mxCell>
        </UserObject>
        <UserObject label="" lucidchartObjectId="Yu5M4GIAFP0a" id="ZR0sNAejCj67LuoEHNH--9">
          <mxCell style="html=1;jettySize=18;whiteSpace=wrap;fontSize=13;fontFamily=helvetica;strokeColor=#333333;strokeOpacity=100;dashed=1;fixDash=1;dashPattern=16 6;strokeWidth=0.8;rounded=0;startArrow=none;endArrow=none;exitX=0.5;exitY=1;exitPerimeter=0;" edge="1" parent="ZR0sNAejCj67LuoEHNH--7">
            <mxGeometry width="100" height="100" relative="1" as="geometry">
              <Array as="points" />
              <mxPoint x="14.5" y="1393.6363525390625" as="targetPoint" />
              <mxPoint x="14.5" as="sourcePoint" />
            </mxGeometry>
          </mxCell>
        </UserObject>
        <mxCell id="ZR0sNAejCj67LuoEHNH--10" value="" style="group" vertex="1" connectable="0" parent="1">
          <mxGeometry x="640" y="200" width="30" height="1393.6363525390625" as="geometry" />
        </mxCell>
        <UserObject label="" lucidchartObjectId="Yu5MhR-oMSno" id="ZR0sNAejCj67LuoEHNH--11">
          <mxCell style="html=1;overflow=block;blockSpacing=1;whiteSpace=wrap;fontSize=13;spacing=0;strokeColor=#f2f2f2;strokeOpacity=100;fillOpacity=100;rounded=1;absoluteArcSize=1;arcSize=0;fillColor=#ced4db;strokeWidth=0.8;" vertex="1" parent="ZR0sNAejCj67LuoEHNH--10">
            <mxGeometry y="60" width="30" height="993" as="geometry" />
          </mxCell>
        </UserObject>
        <UserObject label="" lucidchartObjectId="Yu5M4GIAFP0a" id="ZR0sNAejCj67LuoEHNH--12">
          <mxCell style="html=1;jettySize=18;whiteSpace=wrap;fontSize=13;fontFamily=helvetica;strokeColor=#333333;strokeOpacity=100;dashed=1;fixDash=1;dashPattern=16 6;strokeWidth=0.8;rounded=0;startArrow=none;endArrow=none;exitX=0.5;exitY=1;exitPerimeter=0;" edge="1" parent="ZR0sNAejCj67LuoEHNH--10">
            <mxGeometry width="100" height="100" relative="1" as="geometry">
              <Array as="points" />
              <mxPoint x="14.5" y="1393.6363525390625" as="targetPoint" />
              <mxPoint x="14.5" as="sourcePoint" />
            </mxGeometry>
          </mxCell>
        </UserObject>
        <mxCell id="ZR0sNAejCj67LuoEHNH--13" value="" style="group" vertex="1" connectable="0" parent="1">
          <mxGeometry x="361.5" y="210" width="30" height="1393.6363525390625" as="geometry" />
        </mxCell>
        <UserObject label="" lucidchartObjectId="Yu5MhR-oMSno" id="ZR0sNAejCj67LuoEHNH--14">
          <mxCell style="html=1;overflow=block;blockSpacing=1;whiteSpace=wrap;fontSize=13;spacing=0;strokeColor=#f2f2f2;strokeOpacity=100;fillOpacity=100;rounded=1;absoluteArcSize=1;arcSize=0;fillColor=#ced4db;strokeWidth=0.8;" vertex="1" parent="ZR0sNAejCj67LuoEHNH--13">
            <mxGeometry y="60" width="30" height="993" as="geometry" />
          </mxCell>
        </UserObject>
        <UserObject label="" lucidchartObjectId="Yu5M4GIAFP0a" id="ZR0sNAejCj67LuoEHNH--15">
          <mxCell style="html=1;jettySize=18;whiteSpace=wrap;fontSize=13;fontFamily=helvetica;strokeColor=#333333;strokeOpacity=100;dashed=1;fixDash=1;dashPattern=16 6;strokeWidth=0.8;rounded=0;startArrow=none;endArrow=none;exitX=0.5;exitY=1;exitPerimeter=0;" edge="1" parent="ZR0sNAejCj67LuoEHNH--13">
            <mxGeometry width="100" height="100" relative="1" as="geometry">
              <Array as="points" />
              <mxPoint x="14.5" y="1393.6363525390625" as="targetPoint" />
              <mxPoint x="14.5" as="sourcePoint" />
            </mxGeometry>
          </mxCell>
        </UserObject>
        <UserObject label="" lucidchartObjectId="C8Ze6TrC35Hq" id="N1TB7SgT2i3iUhnOUWwx-1">
          <mxCell style="html=1;jettySize=18;whiteSpace=wrap;fontSize=13;strokeColor=#3a414a;strokeOpacity=100;strokeWidth=0.8;rounded=1;arcSize=24;edgeStyle=orthogonalEdgeStyle;startArrow=none;endArrow=none;" edge="1" parent="1">
            <mxGeometry width="100" height="100" relative="1" as="geometry">
              <Array as="points">
                <mxPoint x="140" y="1465" />
                <mxPoint x="140" y="290" />
              </Array>
              <mxPoint x="150" y="1465" as="sourcePoint" />
              <mxPoint x="140" y="290" as="targetPoint" />
            </mxGeometry>
          </mxCell>
        </UserObject>
        <mxCell id="N1TB7SgT2i3iUhnOUWwx-2" value="" style="endArrow=classic;html=1;rounded=0;fontFamily=Helvetica;fontSize=16;fontColor=default;" edge="1" parent="1">
          <mxGeometry width="50" height="50" relative="1" as="geometry">
            <mxPoint x="140" y="340" as="sourcePoint" />
            <mxPoint x="360" y="340" as="targetPoint" />
            <Array as="points">
              <mxPoint x="250" y="340" />
            </Array>
          </mxGeometry>
        </mxCell>
        <mxCell id="0SOcNeNoXSubPKGIv6pJ-3" value="" style="curved=1;endArrow=classic;html=1;rounded=0;fontFamily=Helvetica;fontSize=16;fontColor=default;entryX=-0.002;entryY=0.249;entryDx=0;entryDy=0;entryPerimeter=0;" edge="1" parent="1" target="0SOcNeNoXSubPKGIv6pJ-1">
          <mxGeometry width="50" height="50" relative="1" as="geometry">
            <mxPoint x="140" y="370" as="sourcePoint" />
            <mxPoint x="1010" y="570" as="targetPoint" />
            <Array as="points">
              <mxPoint x="-190" y="320" />
              <mxPoint x="90" y="540" />
            </Array>
          </mxGeometry>
        </mxCell>
        <mxCell id="N1TB7SgT2i3iUhnOUWwx-3" value="" style="endArrow=classic;html=1;rounded=0;fontFamily=Helvetica;fontSize=16;fontColor=default;" edge="1" parent="1">
          <mxGeometry width="50" height="50" relative="1" as="geometry">
            <mxPoint x="370" y="380" as="sourcePoint" />
            <mxPoint x="140" y="380" as="targetPoint" />
          </mxGeometry>
        </mxCell>
        <mxCell id="N1TB7SgT2i3iUhnOUWwx-4" value="on or off or on off" style="edgeLabel;html=1;align=center;verticalAlign=middle;resizable=0;points=[];fontSize=16;fontFamily=Helvetica;fontColor=default;" vertex="1" connectable="0" parent="N1TB7SgT2i3iUhnOUWwx-3">
          <mxGeometry x="0.282" y="-3" relative="1" as="geometry">
            <mxPoint x="28" y="-7" as="offset" />
          </mxGeometry>
        </mxCell>
        <mxCell id="0SOcNeNoXSubPKGIv6pJ-4" value="" style="endArrow=classic;html=1;rounded=0;fontFamily=Helvetica;fontSize=16;fontColor=default;" edge="1" parent="1">
          <mxGeometry width="50" height="50" relative="1" as="geometry">
            <mxPoint x="370" y="400" as="sourcePoint" />
            <mxPoint x="130" y="400" as="targetPoint" />
          </mxGeometry>
        </mxCell>
        <mxCell id="0SOcNeNoXSubPKGIv6pJ-5" value="queue of patient" style="edgeLabel;html=1;align=center;verticalAlign=middle;resizable=0;points=[];fontSize=16;fontFamily=Helvetica;fontColor=default;" vertex="1" connectable="0" parent="0SOcNeNoXSubPKGIv6pJ-4">
          <mxGeometry x="0.2831" y="5" relative="1" as="geometry">
            <mxPoint x="34" y="5" as="offset" />
          </mxGeometry>
        </mxCell>
        <mxCell id="0SOcNeNoXSubPKGIv6pJ-6" value="" style="endArrow=classic;html=1;rounded=0;fontFamily=Helvetica;fontSize=16;fontColor=default;" edge="1" parent="1">
          <mxGeometry width="50" height="50" relative="1" as="geometry">
            <mxPoint x="150" y="430" as="sourcePoint" />
            <mxPoint x="360" y="430" as="targetPoint" />
          </mxGeometry>
        </mxCell>
        <mxCell id="0SOcNeNoXSubPKGIv6pJ-7" value="select patient" style="edgeLabel;html=1;align=center;verticalAlign=middle;resizable=0;points=[];fontSize=16;fontFamily=Helvetica;fontColor=default;" vertex="1" connectable="0" parent="0SOcNeNoXSubPKGIv6pJ-6">
          <mxGeometry x="-0.3983" y="-4" relative="1" as="geometry">
            <mxPoint x="36" y="5" as="offset" />
          </mxGeometry>
        </mxCell>
        <UserObject label="on" lucidchartObjectId="Mg0eFWkmtDXO" id="0SOcNeNoXSubPKGIv6pJ-1">
          <mxCell style="html=1;blockSpacing=1;whiteSpace=wrap;shape=mxgraph.sysml.package2;xSize=90;overflow=fill;fontSize=16;fontColor=default;align=left;spacing=0;strokeColor=#3a414a;strokeOpacity=100;fillOpacity=100;rounded=1;absoluteArcSize=1;arcSize=12;fillColor=#ffffff;strokeWidth=1.5;movable=1;resizable=1;rotatable=1;deletable=1;editable=1;connectable=1;" vertex="1" parent="1">
            <mxGeometry x="90" y="465" width="1510" height="125" as="geometry" />
          </mxCell>
        </UserObject>
        <mxCell id="0SOcNeNoXSubPKGIv6pJ-8" value="" style="endArrow=classic;html=1;rounded=0;fontFamily=Helvetica;fontSize=16;fontColor=default;exitX=0.04;exitY=0.125;exitDx=0;exitDy=0;exitPerimeter=0;" edge="1" parent="1" source="0SOcNeNoXSubPKGIv6pJ-1">
          <mxGeometry width="50" height="50" relative="1" as="geometry">
            <mxPoint x="570" y="535" as="sourcePoint" />
            <mxPoint x="380" y="478.75" as="targetPoint" />
            <Array as="points">
              <mxPoint x="290" y="478.75" />
            </Array>
          </mxGeometry>
        </mxCell>
        <mxCell id="0SOcNeNoXSubPKGIv6pJ-9" value="" style="endArrow=classic;html=1;rounded=0;fontFamily=Helvetica;fontSize=16;fontColor=default;entryX=0.367;entryY=0.156;entryDx=0;entryDy=0;entryPerimeter=0;" edge="1" parent="1" target="0SOcNeNoXSubPKGIv6pJ-1">
          <mxGeometry width="50" height="50" relative="1" as="geometry">
            <mxPoint x="370" y="483.4375" as="sourcePoint" />
            <mxPoint x="530" y="488.125" as="targetPoint" />
          </mxGeometry>
        </mxCell>
        <mxCell id="0SOcNeNoXSubPKGIv6pJ-10" value="" style="endArrow=classic;html=1;rounded=0;fontFamily=Helvetica;fontSize=16;fontColor=default;entryX=0.92;entryY=0.156;entryDx=0;entryDy=0;entryPerimeter=0;" edge="1" parent="1" target="0SOcNeNoXSubPKGIv6pJ-1">
          <mxGeometry width="50" height="50" relative="1" as="geometry">
            <mxPoint x="630" y="483.4375" as="sourcePoint" />
            <mxPoint x="850" y="506.875" as="targetPoint" />
          </mxGeometry>
        </mxCell>
        <mxCell id="0SOcNeNoXSubPKGIv6pJ-12" value="access camera" style="edgeLabel;html=1;align=center;verticalAlign=middle;resizable=0;points=[];fontSize=16;fontFamily=Helvetica;fontColor=default;" vertex="1" connectable="0" parent="0SOcNeNoXSubPKGIv6pJ-10">
          <mxGeometry x="-0.2666" y="6" relative="1" as="geometry">
            <mxPoint as="offset" />
          </mxGeometry>
        </mxCell>
        <mxCell id="0SOcNeNoXSubPKGIv6pJ-11" value="" style="endArrow=classic;html=1;rounded=0;fontFamily=Helvetica;fontSize=16;fontColor=default;exitX=0.92;exitY=0.25;exitDx=0;exitDy=0;exitPerimeter=0;" edge="1" parent="1" source="0SOcNeNoXSubPKGIv6pJ-1">
          <mxGeometry width="50" height="50" relative="1" as="geometry">
            <mxPoint x="810" y="563.125" as="sourcePoint" />
            <mxPoint x="660" y="497.5" as="targetPoint" />
            <Array as="points">
              <mxPoint x="1020" y="498" />
            </Array>
          </mxGeometry>
        </mxCell>
        <mxCell id="0SOcNeNoXSubPKGIv6pJ-15" value="" style="endArrow=classic;html=1;rounded=0;fontFamily=Helvetica;fontSize=16;fontColor=default;" edge="1" parent="1">
          <mxGeometry width="50" height="50" relative="1" as="geometry">
            <mxPoint x="640" y="497.5" as="sourcePoint" />
            <mxPoint x="380" y="497.5" as="targetPoint" />
            <Array as="points">
              <mxPoint x="520" y="497.5" />
            </Array>
          </mxGeometry>
        </mxCell>
        <mxCell id="0SOcNeNoXSubPKGIv6pJ-16" value="" style="endArrow=classic;html=1;rounded=0;fontFamily=Helvetica;fontSize=16;fontColor=default;entryX=0.047;entryY=0.25;entryDx=0;entryDy=0;entryPerimeter=0;" edge="1" parent="1" target="0SOcNeNoXSubPKGIv6pJ-1">
          <mxGeometry width="50" height="50" relative="1" as="geometry">
            <mxPoint x="390" y="497.5" as="sourcePoint" />
            <mxPoint x="740" y="558.4375" as="targetPoint" />
          </mxGeometry>
        </mxCell>
        <mxCell id="0SOcNeNoXSubPKGIv6pJ-17" value="video" style="edgeLabel;html=1;align=center;verticalAlign=middle;resizable=0;points=[];fontSize=16;fontFamily=Helvetica;fontColor=default;" vertex="1" connectable="0" parent="0SOcNeNoXSubPKGIv6pJ-16">
          <mxGeometry x="0.2373" y="-1" relative="1" as="geometry">
            <mxPoint y="-9" as="offset" />
          </mxGeometry>
        </mxCell>
        <mxCell id="0SOcNeNoXSubPKGIv6pJ-19" value="" style="endArrow=none;dashed=1;html=1;dashPattern=1 3;strokeWidth=2;rounded=0;fontFamily=Helvetica;fontSize=16;fontColor=default;exitX=-0.005;exitY=0.546;exitDx=0;exitDy=0;exitPerimeter=0;" edge="1" parent="1" source="0SOcNeNoXSubPKGIv6pJ-1">
          <mxGeometry x="-0.0053" y="-61" width="50" height="50" relative="1" as="geometry">
            <mxPoint x="400" y="553.75" as="sourcePoint" />
            <mxPoint x="1610" y="540" as="targetPoint" />
            <Array as="points" />
            <mxPoint as="offset" />
          </mxGeometry>
        </mxCell>
        <mxCell id="0SOcNeNoXSubPKGIv6pJ-20" value="off" style="edgeLabel;html=1;align=center;verticalAlign=middle;resizable=0;points=[];fontSize=16;fontFamily=Helvetica;fontColor=default;" vertex="1" connectable="0" parent="0SOcNeNoXSubPKGIv6pJ-19">
          <mxGeometry x="-0.9713" y="4" relative="1" as="geometry">
            <mxPoint as="offset" />
          </mxGeometry>
        </mxCell>
        <mxCell id="0SOcNeNoXSubPKGIv6pJ-25" value="" style="endArrow=classic;html=1;rounded=0;fontFamily=Helvetica;fontSize=16;fontColor=default;exitX=1.023;exitY=0.062;exitDx=0;exitDy=0;exitPerimeter=0;" edge="1" parent="1" source="ZR0sNAejCj67LuoEHNH--14">
          <mxGeometry width="50" height="50" relative="1" as="geometry">
            <mxPoint x="690" y="720" as="sourcePoint" />
            <mxPoint x="640" y="332" as="targetPoint" />
          </mxGeometry>
        </mxCell>
        <mxCell id="0SOcNeNoXSubPKGIv6pJ-26" value="" style="endArrow=classic;html=1;rounded=0;fontFamily=Helvetica;fontSize=16;fontColor=default;exitX=1.043;exitY=0.079;exitDx=0;exitDy=0;exitPerimeter=0;" edge="1" parent="1" source="ZR0sNAejCj67LuoEHNH--11">
          <mxGeometry width="50" height="50" relative="1" as="geometry">
            <mxPoint x="690" y="720" as="sourcePoint" />
            <mxPoint x="920" y="340" as="targetPoint" />
          </mxGeometry>
        </mxCell>
        <mxCell id="0SOcNeNoXSubPKGIv6pJ-27" value="" style="endArrow=classic;html=1;rounded=0;fontFamily=Helvetica;fontSize=16;fontColor=default;" edge="1" parent="1">
          <mxGeometry width="50" height="50" relative="1" as="geometry">
            <mxPoint x="920" y="360" as="sourcePoint" />
            <mxPoint x="660" y="360" as="targetPoint" />
          </mxGeometry>
        </mxCell>
        <mxCell id="0SOcNeNoXSubPKGIv6pJ-28" value="" style="endArrow=classic;html=1;rounded=0;fontFamily=Helvetica;fontSize=16;fontColor=default;" edge="1" parent="1">
          <mxGeometry width="50" height="50" relative="1" as="geometry">
            <mxPoint x="640" y="360" as="sourcePoint" />
            <mxPoint x="380" y="360" as="targetPoint" />
          </mxGeometry>
        </mxCell>
        <mxCell id="0SOcNeNoXSubPKGIv6pJ-29" value="" style="endArrow=classic;html=1;rounded=0;fontFamily=Helvetica;fontSize=16;fontColor=default;" edge="1" parent="1">
          <mxGeometry width="50" height="50" relative="1" as="geometry">
            <mxPoint x="380" y="380" as="sourcePoint" />
            <mxPoint x="640" y="380" as="targetPoint" />
          </mxGeometry>
        </mxCell>
        <mxCell id="0SOcNeNoXSubPKGIv6pJ-30" value="" style="endArrow=classic;html=1;rounded=0;fontFamily=Helvetica;fontSize=16;fontColor=default;" edge="1" parent="1">
          <mxGeometry width="50" height="50" relative="1" as="geometry">
            <mxPoint x="670" y="380" as="sourcePoint" />
            <mxPoint x="910" y="380" as="targetPoint" />
          </mxGeometry>
        </mxCell>
        <mxCell id="0SOcNeNoXSubPKGIv6pJ-31" value="" style="endArrow=classic;html=1;rounded=0;fontFamily=Helvetica;fontSize=16;fontColor=default;exitX=0.013;exitY=0.15;exitDx=0;exitDy=0;exitPerimeter=0;" edge="1" parent="1" source="ZR0sNAejCj67LuoEHNH--8">
          <mxGeometry width="50" height="50" relative="1" as="geometry">
            <mxPoint x="690" y="720" as="sourcePoint" />
            <mxPoint x="670" y="400" as="targetPoint" />
          </mxGeometry>
        </mxCell>
        <mxCell id="0SOcNeNoXSubPKGIv6pJ-32" value="" style="endArrow=classic;html=1;rounded=0;fontFamily=Helvetica;fontSize=16;fontColor=default;" edge="1" parent="1">
          <mxGeometry width="50" height="50" relative="1" as="geometry">
            <mxPoint x="650" y="410" as="sourcePoint" />
            <mxPoint x="380" y="410" as="targetPoint" />
          </mxGeometry>
        </mxCell>
        <mxCell id="0SOcNeNoXSubPKGIv6pJ-33" value="" style="endArrow=classic;html=1;rounded=0;fontFamily=Helvetica;fontSize=16;fontColor=default;exitX=0.95;exitY=0.161;exitDx=0;exitDy=0;exitPerimeter=0;" edge="1" parent="1" source="ZR0sNAejCj67LuoEHNH--14">
          <mxGeometry width="50" height="50" relative="1" as="geometry">
            <mxPoint x="690" y="720" as="sourcePoint" />
            <mxPoint x="650" y="430" as="targetPoint" />
          </mxGeometry>
        </mxCell>
        <mxCell id="0SOcNeNoXSubPKGIv6pJ-34" value="" style="endArrow=classic;html=1;rounded=0;fontFamily=Helvetica;fontSize=16;fontColor=default;exitX=1.164;exitY=0.164;exitDx=0;exitDy=0;exitPerimeter=0;entryX=0.073;entryY=0.174;entryDx=0;entryDy=0;entryPerimeter=0;" edge="1" parent="1" source="ZR0sNAejCj67LuoEHNH--11" target="ZR0sNAejCj67LuoEHNH--8">
          <mxGeometry width="50" height="50" relative="1" as="geometry">
            <mxPoint x="690" y="720" as="sourcePoint" />
            <mxPoint x="740" y="670" as="targetPoint" />
          </mxGeometry>
        </mxCell>
        <mxCell id="0SOcNeNoXSubPKGIv6pJ-35" value="" style="endArrow=classic;html=1;rounded=0;fontFamily=Helvetica;fontSize=16;fontColor=default;entryX=1.104;entryY=0.184;entryDx=0;entryDy=0;entryPerimeter=0;" edge="1" parent="1" target="ZR0sNAejCj67LuoEHNH--11">
          <mxGeometry width="50" height="50" relative="1" as="geometry">
            <mxPoint x="930" y="440" as="sourcePoint" />
            <mxPoint x="740" y="670" as="targetPoint" />
          </mxGeometry>
        </mxCell>
        <mxCell id="0SOcNeNoXSubPKGIv6pJ-36" value="" style="endArrow=classic;html=1;rounded=0;fontFamily=Helvetica;fontSize=16;fontColor=default;entryX=1.145;entryY=0.179;entryDx=0;entryDy=0;entryPerimeter=0;" edge="1" parent="1" target="ZR0sNAejCj67LuoEHNH--14">
          <mxGeometry width="50" height="50" relative="1" as="geometry">
            <mxPoint x="640" y="450" as="sourcePoint" />
            <mxPoint x="740" y="670" as="targetPoint" />
          </mxGeometry>
        </mxCell>
        <mxCell id="0SOcNeNoXSubPKGIv6pJ-37" value="" style="endArrow=classic;html=1;rounded=0;fontFamily=Helvetica;fontSize=16;fontColor=default;" edge="1" parent="1">
          <mxGeometry width="50" height="50" relative="1" as="geometry">
            <mxPoint x="380" y="620" as="sourcePoint" />
            <mxPoint x="140" y="620" as="targetPoint" />
          </mxGeometry>
        </mxCell>
        <mxCell id="0SOcNeNoXSubPKGIv6pJ-38" value="table" style="edgeLabel;html=1;align=center;verticalAlign=middle;resizable=0;points=[];fontSize=16;fontFamily=Helvetica;fontColor=default;" vertex="1" connectable="0" parent="0SOcNeNoXSubPKGIv6pJ-37">
          <mxGeometry x="0.5498" y="-7" relative="1" as="geometry">
            <mxPoint as="offset" />
          </mxGeometry>
        </mxCell>
        <mxCell id="0SOcNeNoXSubPKGIv6pJ-39" value="" style="endArrow=classic;html=1;rounded=0;fontFamily=Helvetica;fontSize=16;fontColor=default;" edge="1" parent="1">
          <mxGeometry width="50" height="50" relative="1" as="geometry">
            <mxPoint x="130" y="650" as="sourcePoint" />
            <mxPoint x="350" y="650" as="targetPoint" />
          </mxGeometry>
        </mxCell>
        <mxCell id="0SOcNeNoXSubPKGIv6pJ-40" value="" style="endArrow=classic;html=1;rounded=0;fontFamily=Helvetica;fontSize=16;fontColor=default;entryX=-0.108;entryY=0.385;entryDx=0;entryDy=0;entryPerimeter=0;" edge="1" parent="1" target="ZR0sNAejCj67LuoEHNH--11">
          <mxGeometry width="50" height="50" relative="1" as="geometry">
            <mxPoint x="380" y="640" as="sourcePoint" />
            <mxPoint x="740" y="670" as="targetPoint" />
          </mxGeometry>
        </mxCell>
        <mxCell id="0SOcNeNoXSubPKGIv6pJ-41" value="" style="endArrow=classic;html=1;rounded=0;fontFamily=Helvetica;fontSize=16;fontColor=default;" edge="1" parent="1">
          <mxGeometry width="50" height="50" relative="1" as="geometry">
            <mxPoint x="650" y="640" as="sourcePoint" />
            <mxPoint x="910" y="640" as="targetPoint" />
          </mxGeometry>
        </mxCell>
        <mxCell id="0SOcNeNoXSubPKGIv6pJ-42" value="" style="endArrow=classic;html=1;rounded=0;fontFamily=Helvetica;fontSize=16;fontColor=default;" edge="1" parent="1">
          <mxGeometry width="50" height="50" relative="1" as="geometry">
            <mxPoint x="900" y="670" as="sourcePoint" />
            <mxPoint x="670" y="670" as="targetPoint" />
          </mxGeometry>
        </mxCell>
        <mxCell id="0SOcNeNoXSubPKGIv6pJ-43" value="" style="endArrow=classic;html=1;rounded=0;fontFamily=Helvetica;fontSize=16;fontColor=default;" edge="1" parent="1">
          <mxGeometry width="50" height="50" relative="1" as="geometry">
            <mxPoint x="640" y="680" as="sourcePoint" />
            <mxPoint x="400" y="680" as="targetPoint" />
          </mxGeometry>
        </mxCell>
        <mxCell id="0SOcNeNoXSubPKGIv6pJ-44" value="" style="endArrow=classic;html=1;rounded=0;fontFamily=Helvetica;fontSize=16;fontColor=default;" edge="1" parent="1">
          <mxGeometry width="50" height="50" relative="1" as="geometry">
            <mxPoint x="370" y="680" as="sourcePoint" />
            <mxPoint x="150" y="680" as="targetPoint" />
          </mxGeometry>
        </mxCell>
        <mxCell id="0SOcNeNoXSubPKGIv6pJ-45" value="done" style="edgeLabel;html=1;align=center;verticalAlign=middle;resizable=0;points=[];fontSize=16;fontFamily=Helvetica;fontColor=default;" vertex="1" connectable="0" parent="0SOcNeNoXSubPKGIv6pJ-44">
          <mxGeometry x="0.218" y="-1" relative="1" as="geometry">
            <mxPoint as="offset" />
          </mxGeometry>
        </mxCell>
      </root>
    </mxGraphModel>
  </diagram>
</mxfile>
